<?xml version="1.0" standalone="no"?>
<!DOCTYPE svg PUBLIC "-//W3C//DTD SVG 20010904//EN"
 "http://www.w3.org/TR/2001/REC-SVG-20010904/DTD/svg10.dtd">
<svg version="1.0" xmlns="http://www.w3.org/2000/svg"
 width="900.000000pt" height="900.000000pt" viewBox="0 0 900.000000 900.000000"
 preserveAspectRatio="xMidYMid meet">
<metadata>
Created by potrace 1.10, written by Peter Selinger 2001-2011
</metadata>
<g transform="translate(0.000000,900.000000) scale(0.100000,-0.100000)"
fill="#000000" stroke="none">
<path d="M1293 8960 c0 -25 2 -35 4 -22 2 12 2 32 0 45 -2 12 -4 2 -4 -23z"/>
<path d="M1888 8975 c-4 -16 -2 -34 3 -39 15 -16 21 0 11 35 l-8 34 -6 -30z"/>
<path d="M3150 8985 c0 -9 12 -18 30 -22 33 -6 46 -18 30 -28 -18 -11 -11 -35
11 -35 18 0 20 4 14 30 -4 19 -3 30 4 30 6 0 11 9 11 20 0 17 -7 20 -50 20
-38 0 -50 -4 -50 -15z"/>
<path d="M3326 8992 c-2 -4 -1 -14 5 -22 5 -8 9 -25 9 -37 0 -16 6 -23 20 -23
14 0 20 7 20 24 0 19 7 26 30 31 17 4 30 13 30 21 0 10 -14 14 -54 14 -30 0
-57 -4 -60 -8z"/>
<path d="M3740 8985 c0 -9 9 -15 25 -15 16 0 25 6 25 15 0 9 -9 15 -25 15 -16
0 -25 -6 -25 -15z"/>
<path d="M3980 8985 c0 -10 -10 -15 -27 -15 -44 0 -61 -15 -45 -40 17 -27 15
-57 -3 -68 -13 -7 -12 -10 10 -20 22 -10 25 -9 25 6 0 10 9 35 20 57 11 22 20
45 20 52 0 7 7 13 15 13 8 0 15 7 15 15 0 8 -7 15 -15 15 -8 0 -15 -7 -15 -15z"/>
<path d="M5793 8960 c0 -25 2 -35 4 -22 2 12 2 32 0 45 -2 12 -4 2 -4 -23z"/>
<path d="M6388 8975 c-4 -16 -2 -34 3 -39 15 -16 21 0 11 35 l-8 34 -6 -30z"/>
<path d="M7650 8985 c0 -16 63 -37 86 -28 8 3 14 14 14 24 0 16 -8 19 -50 19
-37 0 -50 -4 -50 -15z"/>
<path d="M7826 8992 c-2 -4 -1 -14 5 -22 5 -8 9 -25 9 -37 0 -16 6 -23 20 -23
14 0 20 7 20 24 0 17 8 25 32 32 57 16 46 34 -21 34 -33 0 -62 -4 -65 -8z"/>
<path d="M8250 8985 c0 -8 9 -15 20 -15 11 0 20 7 20 15 0 8 -9 15 -20 15 -11
0 -20 -7 -20 -15z"/>
<path d="M8470 8984 c0 -8 -4 -13 -9 -9 -14 8 -61 -16 -61 -31 0 -7 5 -16 11
-20 7 -4 9 -20 6 -40 -4 -22 -1 -37 9 -45 11 -9 14 -8 14 8 0 10 9 36 20 58
11 22 20 45 20 52 0 7 7 13 15 13 8 0 15 7 15 15 0 8 -9 15 -20 15 -11 0 -20
-7 -20 -16z"/>
<path d="M8610 8979 c0 -11 5 -17 10 -14 6 3 10 13 10 21 0 8 -4 14 -10 14 -5
0 -10 -9 -10 -21z"/>
<path d="M4127 8933 c-4 -3 -7 -17 -7 -29 0 -14 -8 -25 -20 -29 -23 -7 -27
-35 -6 -35 19 0 56 52 56 79 0 21 -10 27 -23 14z"/>
<path d="M8627 8933 c-4 -3 -7 -15 -7 -26 0 -11 -8 -26 -17 -33 -12 -8 -15
-16 -8 -23 12 -12 26 -4 43 26 21 38 12 80 -11 56z"/>
<path d="M377 8924 c-8 -8 1 -24 14 -24 5 0 9 7 9 15 0 15 -12 20 -23 9z"/>
<path d="M4877 8924 c-8 -8 1 -24 14 -24 5 0 9 7 9 15 0 15 -12 20 -23 9z"/>
<path d="M7700 8915 c0 -12 7 -15 25 -13 14 2 26 8 26 13 0 6 -12 11 -26 13
-18 2 -25 -1 -25 -13z"/>
<path d="M2195 8880 c-10 -11 -16 -21 -14 -23 45 -33 55 -35 78 -18 20 15 22
21 12 39 -15 28 -52 28 -76 2z"/>
<path d="M3986 8892 c-8 -13 23 -52 40 -52 8 0 14 6 14 13 -1 16 -47 50 -54
39z"/>
<path d="M6702 8884 c-29 -20 -28 -26 7 -45 26 -15 30 -15 51 1 19 14 21 20
11 38 -14 26 -38 28 -69 6z"/>
<path d="M8486 8892 c-7 -12 22 -52 40 -52 8 0 14 6 14 14 0 8 7 17 16 20 9 4
14 9 11 13 -4 3 -13 0 -22 -7 -13 -11 -19 -10 -34 4 -11 10 -22 13 -25 8z"/>
<path d="M56 8873 c-11 -11 -6 -23 9 -23 8 0 15 4 15 9 0 13 -16 22 -24 14z"/>
<path d="M1286 8864 c-8 -22 -8 -24 8 -24 21 0 28 16 12 29 -11 9 -15 8 -20
-5z"/>
<path d="M2572 8846 c-11 -30 -11 -47 -2 -87 7 -27 9 -69 6 -92 -5 -35 6 -82
16 -67 2 3 1 68 -2 144 -5 131 -6 137 -18 102z"/>
<path d="M5786 8864 c-8 -22 -8 -24 8 -24 21 0 28 16 12 29 -11 9 -15 8 -20
-5z"/>
<path d="M1365 8860 c-7 -12 12 -50 25 -50 11 0 12 6 4 38 -7 23 -19 29 -29
12z"/>
<path d="M2847 8849 c-3 -12 -1 -31 4 -42 6 -10 8 -28 6 -39 -4 -16 -3 -17 9
-7 18 15 18 49 0 83 -13 26 -14 26 -19 5z"/>
<path d="M4550 8860 c0 -5 7 -10 15 -10 8 0 15 5 15 10 0 6 -7 10 -15 10 -8 0
-15 -4 -15 -10z"/>
<path d="M5865 8860 c-7 -12 12 -50 25 -50 11 0 13 21 4 44 -7 18 -20 21 -29
6z"/>
<path d="M7071 8843 c-11 -26 -11 -42 -2 -77 13 -54 14 -99 2 -111 -5 -6 -4
-20 2 -35 10 -22 12 -16 15 48 2 40 2 103 0 140 -3 67 -3 67 -17 35z"/>
<path d="M7347 8849 c-3 -12 -1 -31 4 -42 6 -10 8 -28 6 -39 -4 -16 -3 -17 9
-7 18 15 18 49 0 83 -13 26 -14 26 -19 5z"/>
<path d="M2700 8823 c1 -10 7 -31 15 -48 l14 -30 -2 44 c-1 25 -7 46 -14 49
-8 2 -13 -4 -13 -15z"/>
<path d="M7201 8823 c0 -10 7 -34 14 -53 l14 -35 -2 49 c-1 29 -7 51 -14 54
-8 2 -13 -4 -12 -15z"/>
<path d="M4230 8795 c0 -15 4 -24 10 -20 6 3 10 12 10 20 0 8 -4 17 -10 20 -6
4 -10 -5 -10 -20z"/>
<path d="M8730 8794 c0 -22 2 -25 15 -14 12 10 13 16 4 26 -16 20 -19 18 -19
-12z"/>
<path d="M3150 8796 c0 -20 17 -23 94 -20 63 3 86 8 75 18 -2 2 -41 6 -86 9
-66 5 -83 4 -83 -7z"/>
<path d="M4290 8801 c0 -9 71 -24 78 -16 2 2 1 8 -3 14 -7 13 -75 15 -75 2z"/>
<path d="M7650 8797 c0 -11 14 -16 58 -19 68 -4 112 1 112 13 0 5 -31 9 -69 9
-38 0 -76 3 -85 6 -10 4 -16 1 -16 -9z"/>
<path d="M8786 8801 c-6 -9 75 -23 84 -15 8 9 -24 24 -52 24 -15 0 -29 -4 -32
-9z"/>
<path d="M2936 8754 c-4 -10 -1 -14 6 -12 15 5 23 28 10 28 -5 0 -13 -7 -16
-16z"/>
<path d="M7436 8754 c-9 -22 3 -32 14 -14 12 19 12 30 1 30 -5 0 -12 -7 -15
-16z"/>
<path d="M1771 8754 c-1 -5 -7 -19 -15 -29 -11 -15 -17 -17 -27 -8 -11 9 -14
5 -16 -18 -2 -28 11 -41 19 -18 3 8 10 8 25 -2 30 -18 34 -10 24 42 -5 24 -9
39 -10 33z"/>
<path d="M2031 8737 c-11 -28 -21 -33 -36 -18 -6 6 -11 -1 -12 -20 -2 -29 11
-40 20 -16 4 10 7 10 18 0 23 -23 39 -15 39 20 0 17 -4 39 -10 47 -7 11 -11 9
-19 -13z"/>
<path d="M6262 8735 c-10 -21 -16 -25 -24 -17 -19 19 -28 14 -28 -18 0 -29 15
-41 22 -19 3 8 10 8 25 -2 30 -18 34 -11 25 41 l-7 43 -13 -28z"/>
<path d="M6530 8736 c-6 -17 -16 -26 -23 -23 -18 7 -42 -32 -28 -46 7 -7 12
-5 17 6 7 18 34 24 34 7 0 -5 7 -10 15 -10 17 0 21 55 5 80 -7 11 -11 9 -20
-14z"/>
<path d="M199 8730 c24 -21 41 -26 41 -12 0 15 -24 32 -44 32 -20 -1 -20 -1 3
-20z"/>
<path d="M917 8744 c-8 -8 1 -24 14 -24 5 0 9 7 9 15 0 15 -12 20 -23 9z"/>
<path d="M4690 8740 c0 -5 9 -14 20 -20 16 -8 20 -8 20 4 0 7 -7 17 -16 20
-21 8 -24 8 -24 -4z"/>
<path d="M5417 8744 c-8 -8 1 -24 14 -24 5 0 9 7 9 15 0 15 -12 20 -23 9z"/>
<path d="M52 8729 c2 -6 8 -10 13 -10 5 0 11 4 13 10 2 6 -4 11 -13 11 -9 0
-15 -5 -13 -11z"/>
<path d="M4552 8729 c2 -6 8 -10 13 -10 5 0 11 4 13 10 2 6 -4 11 -13 11 -9 0
-15 -5 -13 -11z"/>
<path d="M2406 8695 c-9 -14 -14 -25 -11 -25 8 0 45 34 45 42 0 16 -18 7 -34
-17z"/>
<path d="M6906 8695 c-20 -30 -13 -32 15 -6 11 10 16 22 11 25 -5 3 -17 -5
-26 -19z"/>
<path d="M403 8694 c30 -16 44 -14 32 5 -3 6 -18 11 -33 11 l-27 -1 28 -15z"/>
<path d="M4904 8695 c30 -16 43 -14 31 4 -3 6 -18 11 -33 11 l-27 0 29 -15z"/>
<path d="M2850 8635 c0 -41 1 -42 18 -9 9 17 8 25 -3 34 -13 11 -15 7 -15 -25z"/>
<path d="M7348 8646 c-7 -36 6 -51 20 -22 8 19 8 27 -2 35 -11 9 -15 6 -18
-13z"/>
<path d="M2497 8653 c-4 -3 -7 -16 -7 -27 1 -21 1 -21 15 -2 8 11 15 23 15 28
0 10 -14 11 -23 1z"/>
<path d="M2905 8650 c-3 -5 0 -10 9 -10 8 0 16 -6 19 -12 2 -7 8 -10 12 -6 8
8 -12 38 -26 38 -4 0 -11 -4 -14 -10z"/>
<path d="M6997 8653 c-4 -3 -7 -18 -7 -32 0 -28 14 -19 25 17 6 21 -4 30 -18
15z"/>
<path d="M7405 8650 c-3 -5 0 -10 9 -10 8 0 16 -6 19 -12 2 -7 8 -10 12 -6 8
8 -12 38 -26 38 -4 0 -11 -4 -14 -10z"/>
<path d="M3270 8631 c0 -12 29 -35 36 -28 11 10 -5 37 -21 37 -8 0 -15 -4 -15
-9z"/>
<path d="M3780 8632 c0 -11 22 -32 32 -32 5 0 4 9 -2 20 -11 20 -30 28 -30 12z"/>
<path d="M7770 8632 c0 -4 5 -13 12 -20 16 -16 28 -15 28 2 0 8 -7 17 -16 20
-21 8 -24 8 -24 -2z"/>
<path d="M8280 8631 c0 -13 29 -35 37 -28 7 8 -15 37 -28 37 -5 0 -9 -4 -9 -9z"/>
<path d="M7942 8525 c-6 -59 -15 -112 -20 -117 -17 -17 -52 2 -67 38 -8 19
-19 34 -24 34 -17 0 -13 21 5 35 12 9 14 16 7 29 -8 15 -11 14 -21 -8 -9 -21
-15 -23 -39 -17 -17 5 -30 16 -34 32 -4 13 -7 19 -8 12 -1 -6 -4 -18 -7 -27
-4 -11 -1 -16 10 -16 9 0 16 -8 16 -20 0 -13 7 -20 19 -20 26 0 37 -18 15 -27
-10 -4 -22 0 -29 10 -17 24 -21 22 -51 -23 -24 -37 -29 -39 -73 -39 -80 1
-109 8 -116 28 -3 11 -21 26 -40 35 -41 20 -71 11 -107 -32 -20 -24 -33 -30
-69 -30 -39 -1 -46 2 -61 28 -21 38 -32 38 -54 1 -15 -26 -23 -29 -66 -29 -36
-1 -48 3 -48 14 0 8 -11 26 -25 38 -33 30 -61 24 -87 -19 l-19 -33 -82 0 c-49
1 -85 5 -89 12 -4 6 -8 28 -8 49 0 43 -12 48 -28 12 -11 -25 -12 -25 -51 -9
-52 21 -84 15 -91 -15 -3 -13 -13 -29 -23 -35 -14 -9 -22 -4 -48 27 l-30 37
-119 0 -118 0 -31 -35 c-37 -42 -49 -44 -57 -7 -12 57 -14 59 -33 33 l-19 -24
-11 21 c-6 12 -8 34 -5 48 5 20 3 25 -7 22 -8 -3 -14 -18 -14 -36 0 -48 -19
-61 -50 -32 -30 28 -54 16 -36 -17 13 -26 -3 -43 -41 -43 -27 0 -28 2 -22 38
4 29 1 43 -14 62 l-21 25 1 -33 c1 -18 -4 -38 -10 -44 -12 -12 -32 -2 -32 16
0 7 -9 21 -20 31 -19 18 -20 17 -20 -2 0 -10 -6 -28 -14 -39 -14 -18 -15 -18
-25 9 -6 15 -15 27 -20 27 -16 0 -22 -35 -12 -63 11 -29 0 -37 -49 -37 -38 0
-45 15 -20 40 25 25 26 40 0 40 -11 0 -20 -4 -20 -10 0 -14 -54 -12 -68 2 -9
9 -12 9 -13 -2 -2 -22 -2 -23 5 -47 7 -20 4 -22 -43 -20 -28 1 -51 2 -51 2 0
1 9 18 20 40 15 29 20 58 19 110 -1 80 -17 63 -19 -20 -1 -69 -26 -87 -108
-79 -58 6 -60 7 -71 44 -6 21 -11 50 -11 66 0 22 -3 26 -10 14 -5 -8 -10 -29
-10 -47 0 -46 -8 -62 -31 -56 -10 3 -25 0 -33 -6 -11 -10 -17 -8 -25 6 -10 17
-12 16 -35 -12 -14 -16 -28 -38 -31 -47 -4 -10 -13 -18 -21 -18 -27 0 -64 32
-64 55 0 12 -8 29 -18 39 -18 15 -20 15 -34 -1 -8 -10 -17 -25 -20 -33 -3 -11
-8 -9 -18 10 l-13 25 -11 -40 -12 -40 -66 -3 -67 -3 -11 42 c-6 23 -12 62 -13
88 -2 42 -4 46 -27 46 -21 0 -24 -4 -22 -25 2 -14 0 -45 -4 -70 l-7 -45 -13
30 c-7 17 -11 42 -8 58 3 15 1 27 -4 27 -5 0 -12 -27 -16 -61 -6 -67 -21 -105
-29 -79 -3 8 -8 27 -11 43 -7 28 -26 38 -26 13 0 -8 -11 -28 -24 -43 -26 -30
-28 -29 -40 30 -8 35 -16 34 -41 -6 -20 -32 -21 -32 -110 -34 -50 -1 -118 -5
-153 -9 l-62 -7 -37 38 c-30 31 -40 36 -66 31 -16 -3 -46 -6 -66 -6 -26 0 -32
-3 -21 -9 8 -6 18 -7 22 -5 5 3 27 3 48 -1 30 -5 40 -11 40 -26 0 -17 -8 -19
-103 -19 l-104 0 -31 39 c-37 46 -38 49 -14 67 14 10 15 15 4 26 -10 10 -14 8
-19 -10 -4 -19 -11 -22 -29 -18 -32 8 -41 -13 -14 -34 17 -13 20 -19 10 -25
-8 -5 -18 -2 -25 8 -7 10 -16 17 -20 17 -10 0 -33 -29 -45 -57 -14 -34 -50
-30 -51 5 0 15 -7 43 -14 62 l-13 35 -1 -31 c-2 -52 -37 -65 -69 -26 -20 26
-39 0 -24 -33 16 -35 16 -35 -22 -35 -34 0 -35 0 -41 55 -4 31 -5 73 -2 93 4
24 1 44 -8 55 -12 17 -14 12 -20 -40 -14 -133 -17 -153 -26 -159 -18 -11 -46
7 -62 41 -9 19 -21 35 -27 35 -16 0 -12 21 6 35 13 9 14 16 6 31 -10 18 -11
17 -21 -7 -8 -22 -14 -26 -35 -22 -18 4 -28 14 -33 31 -6 24 -7 25 -14 7 -11
-30 -10 -35 6 -35 8 0 15 -9 15 -20 0 -13 7 -20 19 -20 26 0 37 -18 15 -27
-11 -4 -22 1 -30 12 -13 18 -14 18 -35 -1 -12 -10 -25 -29 -29 -40 -8 -19 -17
-22 -72 -22 -75 -1 -98 5 -98 23 0 18 -46 46 -79 47 -32 1 -78 -26 -86 -52 -4
-14 -16 -18 -54 -18 -44 -1 -49 2 -62 30 -18 40 -29 40 -54 2 -18 -28 -25 -32
-67 -32 -36 -1 -48 3 -48 14 0 24 -48 63 -71 57 -24 -7 -49 -41 -43 -58 7 -16
-177 -17 -188 -1 -4 6 -8 28 -8 49 0 43 -16 49 -30 11 -6 -14 -13 -24 -17 -22
-5 2 -20 10 -35 17 -39 20 -76 7 -95 -34 -18 -38 -40 -45 -50 -17 -3 9 -15 27
-26 40 -19 20 -29 22 -138 22 l-118 0 -28 -35 c-34 -42 -51 -44 -59 -7 -12 55
-14 57 -31 32 -15 -21 -17 -22 -29 -5 -8 10 -11 30 -7 48 5 23 3 29 -8 25 -8
-3 -14 -16 -15 -29 -2 -67 -11 -74 -50 -38 -26 25 -48 16 -40 -15 8 -34 -15
-60 -47 -52 -24 6 -25 9 -16 34 11 32 -3 82 -22 82 -6 0 -9 -6 -6 -12 6 -17
-10 -58 -22 -58 -5 0 -19 17 -32 38 -22 36 -23 36 -27 12 -4 -27 -19 -50 -32
-50 -5 0 -11 14 -15 31 -6 29 -8 30 -23 15 -15 -14 -14 -19 1 -51 16 -34 16
-35 -6 -40 -18 -4 -70 -2 -85 4 -2 0 5 14 14 31 21 34 12 51 -14 27 -24 -22
-41 -21 -65 1 -19 17 -19 16 -13 -24 l7 -40 -64 0 -64 0 25 21 c14 12 23 29
21 40 -4 18 -5 18 -22 1 -14 -15 -29 -17 -78 -13 -36 3 -65 10 -70 18 -4 8
-11 38 -15 67 -8 65 -16 60 -24 -16 -6 -48 -3 -61 14 -84 11 -16 26 -28 33
-28 7 0 13 -4 13 -10 0 -5 -13 -10 -28 -10 -15 0 -45 -9 -66 -20 -22 -10 -43
-17 -47 -14 -19 11 -8 53 21 84 l30 32 -37 -7 c-21 -4 -41 -9 -44 -11 -4 -2
-17 -48 -30 -101 -12 -54 -37 -127 -54 -162 l-32 -65 -5 83 c-4 64 -9 86 -21
93 -13 7 -17 24 -17 73 0 35 5 67 10 70 16 10 12 32 -6 39 -9 4 -18 5 -20 3
-2 -2 -7 -110 -10 -240 -5 -211 -4 -237 10 -237 12 0 16 10 16 39 0 52 15 60
35 18 16 -35 14 -99 -5 -122 -6 -7 -14 -45 -17 -83 -5 -63 -8 -71 -29 -76 -26
-7 -33 -26 -9 -26 8 0 15 -7 15 -15 0 -19 -29 -19 -36 0 -7 17 -34 21 -34 4 0
-15 20 -32 55 -47 l29 -14 -22 -17 c-29 -22 -18 -33 25 -25 l33 6 0 -76 c0
-57 -5 -88 -20 -118 -26 -55 -26 -122 0 -148 28 -28 25 -78 -6 -134 -20 -37
-30 -45 -45 -41 -17 6 -18 3 -9 -20 11 -30 13 -79 4 -113 -5 -16 -12 -21 -24
-17 -13 4 -19 -2 -24 -26 -8 -43 -8 -49 4 -49 6 0 14 10 19 23 17 43 61 60 61
24 0 -7 9 -23 20 -37 14 -18 20 -41 20 -83 0 -71 -12 -97 -46 -97 -37 0 -28
-33 11 -41 l30 -7 -32 -1 c-30 -1 -33 -4 -33 -34 0 -34 18 -58 52 -70 16 -6
18 -21 17 -133 0 -124 -1 -127 -27 -151 -15 -15 -22 -28 -16 -30 6 -2 20 -10
30 -18 18 -13 18 -15 -11 -45 -25 -27 -35 -31 -63 -26 -27 4 -33 2 -30 -12 3
-16 23 -25 81 -37 26 -5 46 -29 34 -41 -2 -3 -22 -8 -43 -11 -44 -6 -74 -28
-74 -52 1 -14 3 -13 15 2 10 15 21 17 45 12 27 -6 29 -9 18 -23 -9 -10 -10
-16 -2 -19 6 -2 20 -10 30 -18 18 -15 18 -16 -11 -40 -29 -25 -29 -26 -11 -40
10 -8 23 -16 28 -17 6 -2 10 -46 9 -98 -1 -90 -2 -96 -28 -119 -26 -23 -26
-24 -8 -37 10 -8 22 -14 27 -14 4 0 8 -81 8 -181 0 -163 -2 -184 -19 -208 -11
-15 -23 -40 -26 -57 -4 -16 -11 -38 -16 -50 -6 -11 -9 -38 -7 -60 3 -38 4 -39
38 -37 19 1 52 -4 73 -12 20 -8 42 -15 47 -15 7 0 10 569 10 1620 l0 1619 30
35 31 35 3757 0 3757 0 33 -32 32 -31 0 -1624 0 -1623 23 6 c56 17 74 42 68
93 -2 14 35 16 44 2 8 -13 45 -13 45 0 0 5 -9 14 -20 20 -25 13 -28 77 -5 86
17 7 21 34 5 34 -28 0 -60 -34 -60 -63 0 -17 -3 -27 -7 -24 -7 8 -6 277 1 285
3 2 8 -6 11 -19 7 -27 46 -49 84 -48 l26 1 -26 9 c-33 12 -51 46 -47 89 3 32
28 56 28 27 0 -23 25 -38 70 -41 35 -3 46 1 71 28 16 17 29 41 29 54 0 25 -15
30 -24 7 -3 -8 -13 -15 -23 -15 -13 0 -14 -3 -5 -12 21 -21 14 -38 -16 -38
-38 0 -106 58 -97 83 4 9 17 17 30 17 24 0 53 26 41 37 -3 3 -6 1 -6 -5 0 -7
-11 -12 -25 -12 -14 0 -25 4 -25 10 0 5 -10 9 -22 7 -19 -2 -24 4 -26 30 -3
27 1 35 22 45 25 11 25 12 10 29 -16 17 -16 19 0 25 11 4 29 -2 46 -15 34 -25
40 -26 40 -8 0 23 -38 50 -78 56 l-37 6 -3 62 c-3 56 0 65 23 84 31 28 32 39
3 36 -21 -2 -24 4 -29 48 -6 52 -26 105 -41 105 -4 0 -8 9 -8 19 0 14 10 21
37 28 42 10 55 30 21 35 -17 2 -24 11 -26 31 -2 16 -10 31 -18 34 -17 6 -18
27 -2 56 18 33 17 175 -1 182 -11 5 -11 8 3 23 21 24 21 58 -1 67 -40 17 61
27 320 32 147 3 267 9 267 14 0 5 -19 10 -42 10 -136 4 -133 3 -132 21 2 18
-8 16 -38 -9 -9 -8 -31 -13 -50 -11 -30 3 -33 6 -30 32 l4 30 -26 -31 c-26
-30 -28 -31 -115 -32 -48 0 -101 3 -117 8 l-29 7 3 135 c4 128 5 135 29 161
18 18 23 33 19 45 -7 17 -8 17 -20 1 -20 -27 -23 -23 -31 35 -18 128 -10 161
33 127 16 -13 25 -35 31 -77 9 -58 9 -58 10 -13 1 25 8 58 16 74 17 31 20 61
4 34 -5 -10 -15 -18 -21 -18 -15 0 -37 31 -38 53 0 16 3 16 35 3 19 -8 35 -11
35 -5 0 5 0 12 0 17 0 4 -10 7 -23 7 -13 0 -22 7 -22 15 0 10 10 15 33 15 18
0 32 5 32 12 0 13 -16 19 -82 28 -32 4 -51 12 -58 25 -20 37 -12 47 53 61 l62
13 -62 14 c-50 11 -63 18 -63 32 0 14 12 21 53 29 28 6 68 12 89 13 60 5 33
17 -35 16 -109 -2 -107 -6 -107 197 0 172 0 174 25 201 31 34 31 45 0 74 l-24
23 24 29 c27 32 22 57 -15 81 -11 6 -20 20 -20 30 0 27 -27 85 -55 119 -14 16
-25 34 -25 39 0 12 43 12 56 0 5 -6 24 -6 44 -1 19 4 27 8 17 9 -10 1 -43 12
-73 26 -48 22 -54 28 -54 54 0 17 -6 34 -13 38 -8 4 -17 17 -21 28 -7 20 -8
20 -22 1 -19 -27 -18 -43 6 -49 12 -3 20 -14 20 -26 0 -18 -6 -21 -37 -21 -21
0 -49 6 -63 13 -20 10 -24 19 -22 45 4 34 -8 41 -27 18 -9 -11 -17 -11 -36 -2
-14 6 -25 17 -25 24 0 6 -4 12 -9 12 -19 0 -21 -20 -5 -45 21 -32 10 -45 -33
-38 -29 5 -33 9 -39 50 -4 25 -4 66 -1 91 3 29 1 56 -7 71 -11 21 -14 11 -24
-84z m-2622 -110 c0 -8 -17 -13 -49 -13 l-50 0 15 24 c9 12 23 25 32 27 19 4
52 -20 52 -38z m3117 -1162 c-3 -3 -11 -2 -17 2 -9 6 -9 10 1 16 14 8 27 -7
16 -18z m-7857 -132 c0 -6 -5 -13 -11 -17 -8 -4 -10 -27 -6 -65 4 -46 2 -59
-9 -59 -29 0 -31 123 -2 141 17 11 28 11 28 0z"/>
<path d="M10 8611 c0 -16 24 -18 55 -5 l30 13 -42 1 c-24 0 -43 -4 -43 -9z"/>
<path d="M1017 8600 c-10 -36 -9 -108 2 -115 16 -9 19 8 12 75 -5 50 -8 59
-14 40z"/>
<path d="M4520 8605 c8 -10 17 -12 24 -6 6 5 20 11 31 14 11 2 0 5 -24 6 -38
1 -42 -1 -31 -14z"/>
<path d="M2723 8599 c-18 -5 -33 -14 -33 -19 0 -18 46 -10 65 10 20 22 16 23
-32 9z"/>
<path d="M7197 8593 c-15 -14 -6 -24 20 -21 34 4 43 28 11 28 -14 0 -28 -3
-31 -7z"/>
<path d="M228 8373 c-2 -120 0 -222 4 -227 5 -6 18 -5 34 3 20 9 24 16 18 29
-5 9 -9 105 -10 212 -2 188 -3 195 -22 198 -20 3 -21 -2 -24 -215z"/>
<path d="M2620 8581 c0 -6 4 -12 9 -15 5 -3 7 -15 4 -25 -3 -10 -1 -21 4 -24
18 -11 30 9 26 41 -4 23 -11 32 -24 32 -11 0 -19 -4 -19 -9z"/>
<path d="M2780 8571 c0 -11 -3 -26 -6 -35 -4 -11 -1 -16 10 -16 9 0 16 8 16
19 0 11 3 26 6 35 4 11 1 16 -10 16 -9 0 -16 -8 -16 -19z"/>
<path d="M7120 8581 c0 -6 4 -12 9 -15 5 -3 7 -15 4 -25 -3 -10 -1 -21 4 -24
18 -11 30 9 26 41 -4 23 -11 32 -24 32 -11 0 -19 -4 -19 -9z"/>
<path d="M7274 8555 c0 -23 4 -35 13 -35 7 0 13 9 13 19 0 11 3 26 6 35 4 11
0 16 -12 16 -15 0 -19 -8 -20 -35z"/>
<path d="M3595 8559 c-10 -15 3 -25 16 -12 7 7 7 13 1 17 -6 3 -14 1 -17 -5z"/>
<path d="M8095 8559 c-10 -15 3 -25 16 -12 7 7 7 13 1 17 -6 3 -14 1 -17 -5z"/>
<path d="M2130 8530 c0 -13 7 -20 19 -20 28 0 35 17 12 29 -27 15 -31 14 -31
-9z"/>
<path d="M6630 8530 c0 -15 7 -20 25 -20 29 0 32 8 8 26 -25 19 -33 17 -33 -6z"/>
<path d="M8280 8500 c0 -5 7 -10 15 -10 8 0 15 5 15 10 0 6 -7 10 -15 10 -8 0
-15 -4 -15 -10z"/>
<path d="M8324 8449 c-10 -17 13 -36 27 -22 12 12 4 33 -11 33 -5 0 -12 -5
-16 -11z"/>
<path d="M180 8211 c0 -27 4 -41 13 -41 9 0 12 11 9 35 -6 50 -22 54 -22 6z"/>
<path d="M8621 8136 c-9 -10 -8 -16 4 -26 13 -11 15 -8 15 14 0 30 -3 32 -19
12z"/>
<path d="M8642 7983 c1 -41 2 -48 5 -23 3 19 9 40 15 47 10 13 3 33 -13 33 -5
0 -8 -26 -7 -57z"/>
<path d="M260 8000 c-20 -28 -20 -31 -4 -55 24 -37 72 -34 101 7 l22 31 -22
23 c-31 33 -71 31 -97 -6z"/>
<path d="M162 7964 c9 -9 21 -13 28 -9 14 9 -5 25 -30 25 -12 0 -12 -3 2 -16z"/>
<path d="M8633 7753 c-38 -5 -45 -23 -9 -23 13 0 31 -3 40 -6 12 -4 16 0 16
15 0 12 -3 20 -7 19 -5 0 -23 -3 -40 -5z"/>
<path d="M8710 7602 c0 -5 7 -16 16 -23 14 -12 16 -11 13 5 -4 20 -29 35 -29
18z"/>
<path d="M8974 7585 c-10 -24 -10 -108 -2 -127 18 -38 28 -15 28 62 0 48 -4
80 -10 80 -6 0 -13 -7 -16 -15z"/>
<path d="M14 7539 c-3 -6 -1 -16 5 -22 9 -9 14 -8 21 3 9 15 4 30 -10 30 -5 0
-12 -5 -16 -11z"/>
<path d="M360 7505 c1 -26 2 -28 11 -12 8 14 8 22 0 30 -8 8 -11 3 -11 -18z"/>
<path d="M8720 7515 c0 -10 10 -15 28 -15 26 1 26 1 8 15 -25 19 -36 19 -36 0z"/>
<path d="M26 7491 c-4 -6 -3 -18 2 -27 8 -14 10 -14 15 -2 7 19 -8 44 -17 29z"/>
<path d="M360 7443 c0 -23 5 -33 15 -33 18 0 18 8 0 40 l-14 25 -1 -32z"/>
<path d="M248 6971 c-15 -5 -15 -8 3 -30 23 -28 35 -22 23 12 -6 17 -14 22
-26 18z"/>
<path d="M308 6903 c12 -2 30 -2 40 0 9 3 -1 5 -23 4 -22 0 -30 -2 -17 -4z"/>
<path d="M8605 6853 c9 -36 12 -38 30 -23 25 21 19 50 -11 50 -24 0 -25 -3
-19 -27z"/>
<path d="M8847 6873 c-11 -10 -8 -41 4 -49 16 -9 41 20 33 39 -6 17 -25 22
-37 10z"/>
<path d="M8610 6792 c0 -5 7 -16 16 -23 14 -12 16 -11 13 5 -4 20 -29 35 -29
18z"/>
<path d="M8730 6785 c0 -8 5 -15 10 -15 6 0 10 7 10 15 0 8 -4 15 -10 15 -5 0
-10 -7 -10 -15z"/>
<path d="M8850 6785 c0 -8 5 -15 10 -15 6 0 10 7 10 15 0 8 -4 15 -10 15 -5 0
-10 -7 -10 -15z"/>
<path d="M8630 6730 c0 -11 5 -20 10 -20 6 0 10 9 10 20 0 11 -4 20 -10 20 -5
0 -10 -9 -10 -20z"/>
<path d="M8750 6730 c0 -11 5 -20 10 -20 6 0 10 9 10 20 0 11 -4 20 -10 20 -5
0 -10 -9 -10 -20z"/>
<path d="M8870 6730 c0 -11 5 -20 10 -20 6 0 10 9 10 20 0 11 -4 20 -10 20 -5
0 -10 -9 -10 -20z"/>
<path d="M222 6708 c-3 -23 -34 -39 -53 -27 -21 13 -26 11 -32 -11 -4 -17 -14
-20 -71 -20 -111 0 -73 -19 45 -22 77 -2 113 1 116 8 2 7 3 29 0 50 -2 22 -4
31 -5 22z"/>
<path d="M350 6561 c0 -82 6 -111 21 -111 5 0 9 43 9 95 0 78 -3 95 -15 95
-12 0 -15 -15 -15 -79z"/>
<path d="M298 6553 c-3 -44 -5 -48 -30 -51 -37 -4 -35 -15 6 -28 l33 -10 2 68
c2 77 -6 93 -11 21z"/>
<path d="M422 6559 c5 -16 68 -25 68 -10 0 6 -9 11 -19 11 -11 0 -27 3 -37 7
-12 4 -15 2 -12 -8z"/>
<path d="M8516 6534 c-4 -11 -13 -14 -31 -10 -32 8 -49 -21 -35 -58 7 -19 17
-26 35 -26 31 0 33 25 3 34 -22 6 -22 7 12 35 19 16 32 32 29 36 -4 3 -9 -2
-13 -11z"/>
<path d="M150 6450 c0 -5 9 -10 20 -10 11 0 20 5 20 10 0 6 -9 10 -20 10 -11
0 -20 -4 -20 -10z"/>
<path d="M60 6430 c0 -22 8 -25 30 -10 13 9 13 11 0 20 -22 15 -30 12 -30 -10z"/>
<path d="M326 6432 c-2 -4 -1 -14 3 -21 6 -10 10 -9 14 3 6 16 -8 32 -17 18z"/>
<path d="M8450 6360 c-20 -38 9 -76 48 -63 8 3 5 11 -10 23 l-23 18 28 11 c32
13 27 31 -8 31 -14 0 -29 -9 -35 -20z"/>
<path d="M330 6350 c0 -6 7 -13 15 -17 24 -9 27 1 5 15 -13 8 -20 8 -20 2z"/>
<path d="M52 6338 c5 -15 37 -18 41 -3 1 6 -9 12 -22 13 -16 3 -22 -1 -19 -10z"/>
<path d="M52 6248 c5 -15 37 -18 41 -3 1 6 -9 12 -22 13 -16 3 -22 -1 -19 -10z"/>
<path d="M8697 6254 c-10 -10 -9 -82 2 -88 5 -3 14 1 21 9 12 14 15 14 30 0
16 -14 18 -14 24 0 3 9 6 30 6 46 0 24 -4 29 -24 29 -13 0 -31 2 -38 5 -8 3
-17 2 -21 -1z"/>
<path d="M8580 6209 c0 -24 4 -38 10 -34 6 3 10 22 10 41 0 19 -4 34 -10 34
-5 0 -10 -18 -10 -41z"/>
<path d="M8634 6183 c5 -85 6 -87 17 -38 13 66 11 105 -6 105 -13 0 -15 -11
-11 -67z"/>
<path d="M60 6155 c0 -10 7 -15 18 -13 21 4 19 22 -2 26 -10 2 -16 -3 -16 -13z"/>
<path d="M56 6083 c-19 -19 9 -23 156 -23 89 0 159 3 156 6 -3 3 -66 6 -139 6
-74 1 -141 5 -150 9 -9 5 -19 5 -23 2z"/>
<path d="M8760 5977 c0 -12 14 -14 83 -11 45 2 100 4 121 4 74 0 31 8 -86 15
-101 6 -118 5 -118 -8z"/>
<path d="M60 5973 c36 -2 75 -5 86 -8 27 -6 37 -30 24 -56 -9 -16 -22 -19 -92
-19 -45 0 -79 -2 -76 -5 7 -7 267 -9 274 -2 3 3 2 12 -2 19 -5 7 -9 27 -9 43
l0 30 -135 1 c-74 0 -106 -1 -70 -3z m170 -43 c0 -20 -5 -30 -15 -30 -10 0
-15 10 -15 30 0 20 5 30 15 30 10 0 15 -10 15 -30z"/>
<path d="M290 5930 c0 -21 24 -28 35 -10 4 6 16 8 28 5 19 -5 19 -4 -3 9 -36
22 -60 20 -60 -4z"/>
<path d="M8750 5889 c0 -5 57 -9 127 -9 69 0 124 2 122 4 -10 8 -249 13 -249
5z"/>
<path d="M293 5788 c-25 -32 -26 -40 -5 -34 11 4 41 7 66 8 53 1 61 14 14 20
-18 3 -40 8 -49 12 -9 4 -20 1 -26 -6z"/>
<path d="M8575 5689 c-5 -13 30 -99 40 -99 8 0 35 65 35 83 0 19 -1 19 -19 3
-17 -16 -19 -15 -34 6 -13 20 -16 21 -22 7z"/>
<path d="M8845 5680 c-3 -5 3 -10 14 -10 12 0 21 5 21 10 0 6 -6 10 -14 10 -8
0 -18 -4 -21 -10z"/>
<path d="M8775 5650 c-3 -5 3 -10 14 -10 12 0 21 5 21 10 0 6 -6 10 -14 10 -8
0 -18 -4 -21 -10z"/>
<path d="M8790 5495 c0 -9 5 -15 11 -13 6 2 11 8 11 13 0 5 -5 11 -11 13 -6 2
-11 -4 -11 -13z"/>
<path d="M390 5441 c0 -16 19 -23 43 -15 21 7 21 7 2 15 -28 11 -45 11 -45 0z"/>
<path d="M8730 5420 c0 -18 4 -29 10 -25 6 3 10 15 10 25 0 10 -4 22 -10 25
-6 4 -10 -7 -10 -25z"/>
<path d="M45 5366 c7 -6 15 -18 18 -26 4 -12 6 -12 6 2 1 9 8 21 16 26 11 5 5
8 -19 8 -26 0 -31 -3 -21 -10z"/>
<path d="M182 5368 c6 -16 36 -34 44 -25 9 9 -15 37 -33 37 -8 0 -13 -5 -11
-12z"/>
<path d="M412 5318 c5 -15 28 -18 29 -3 0 6 -7 12 -17 13 -10 3 -15 -1 -12
-10z"/>
<path d="M465 5321 c-3 -5 -1 -12 5 -16 12 -7 30 2 30 16 0 12 -27 12 -35 0z"/>
<path d="M323 5313 c9 -2 25 -2 35 0 9 3 1 5 -18 5 -19 0 -27 -2 -17 -5z"/>
<path d="M8730 5266 c0 -15 27 -29 34 -18 3 5 -4 13 -15 20 -15 10 -19 10 -19
-2z"/>
<path d="M8605 5259 c-10 -15 3 -25 16 -12 7 7 7 13 1 17 -6 3 -14 1 -17 -5z"/>
<path d="M211 5201 c-14 -4 -26 -12 -29 -19 -5 -15 10 -16 26 0 19 19 23 -9
20 -172 -3 -154 -3 -155 -25 -153 -19 2 -23 -2 -23 -27 0 -27 2 -29 20 -18 24
16 38 3 22 -22 -9 -16 -8 -20 7 -25 11 -3 31 -3 46 1 24 6 25 8 10 24 -14 15
-14 20 -2 32 12 11 12 16 0 26 -10 10 -13 50 -13 166 0 128 3 156 16 167 14
12 14 14 -3 20 -22 9 -40 9 -72 0z"/>
<path d="M8613 4754 c-3 -9 3 -24 14 -35 19 -19 19 -19 15 16 -4 37 -18 46
-29 19z"/>
<path d="M8733 4683 c9 -2 25 -2 35 0 9 3 1 5 -18 5 -19 0 -27 -2 -17 -5z"/>
<path d="M8641 4609 c1 -63 3 -68 8 -32 4 23 13 49 20 57 8 9 12 18 10 19 -2
1 -12 9 -21 16 -17 13 -18 8 -17 -60z"/>
<path d="M267 4634 c-15 -16 -39 -27 -65 -31 -58 -8 -65 -32 -7 -26 34 4 49 1
73 -17 28 -21 34 -22 61 -10 17 7 31 16 31 20 0 5 12 13 28 18 15 6 20 11 11
11 -8 1 -28 15 -44 31 -35 37 -57 38 -88 4z"/>
<path d="M8630 4485 c-10 -12 -10 -15 3 -15 8 0 22 -3 31 -6 23 -9 20 13 -3
25 -14 8 -22 7 -31 -4z"/>
<path d="M454 4365 c-4 -14 -4 -29 0 -32 9 -10 36 18 36 38 0 28 -29 23 -36
-6z"/>
<path d="M0 4360 c0 -19 3 -21 12 -12 9 9 9 15 0 24 -9 9 -12 7 -12 -12z"/>
<path d="M8650 4330 c0 -5 9 -10 20 -10 11 0 20 5 20 10 0 6 -9 10 -20 10 -11
0 -20 -4 -20 -10z"/>
<path d="M452 4309 c2 -7 10 -15 17 -17 8 -3 12 1 9 9 -2 7 -10 15 -17 17 -8
3 -12 -1 -9 -9z"/>
<path d="M8567 4253 c-14 -13 -7 -33 11 -33 26 0 34 11 21 27 -13 14 -22 16
-32 6z"/>
<path d="M8655 4241 c-30 -7 -30 -7 10 -13 22 -3 48 -9 58 -13 12 -5 17 -2 17
8 0 25 -27 31 -85 18z"/>
<path d="M400 4202 c0 -4 9 -15 20 -25 14 -12 20 -29 20 -59 0 -32 3 -39 10
-28 5 8 10 31 10 51 0 28 -6 41 -25 53 -27 18 -35 20 -35 8z"/>
<path d="M8969 4194 c-10 -12 -10 -20 -2 -34 8 -11 8 -21 2 -27 -14 -14 0 -63
17 -63 11 0 14 17 14 70 0 71 -7 83 -31 54z"/>
<path d="M8714 4185 c-8 -20 16 -49 29 -36 11 11 0 51 -14 51 -5 0 -12 -7 -15
-15z"/>
<path d="M15 4180 c-8 -12 20 -24 35 -15 6 3 8 11 5 16 -8 12 -32 12 -40 -1z"/>
<path d="M360 4151 c0 -16 -3 -42 -6 -58 -8 -38 36 -96 57 -75 11 10 9 12 -9
12 -23 0 -23 -2 -22 108 0 23 -4 42 -10 42 -5 0 -10 -13 -10 -29z"/>
<path d="M8548 4168 c9 -9 15 -9 24 0 9 9 7 12 -12 12 -19 0 -21 -3 -12 -12z"/>
<path d="M5 4120 c-8 -12 20 -24 35 -15 5 3 10 10 10 16 0 12 -37 12 -45 -1z"/>
<path d="M8684 4005 c-4 -9 -4 -18 -2 -21 9 -8 39 8 35 19 -6 18 -27 20 -33 2z"/>
<path d="M8727 3951 c-3 -12 -1 -21 3 -21 15 0 23 21 12 32 -6 6 -11 2 -15
-11z"/>
<path d="M4445 3940 c6 -9 73 -6 83 5 3 3 -16 5 -42 5 -28 0 -45 -4 -41 -10z"/>
<path d="M4310 3910 c0 -13 30 -13 50 0 11 7 7 10 -17 10 -18 0 -33 -4 -33
-10z"/>
<path d="M4620 3910 c20 -13 50 -13 50 0 0 6 -15 10 -32 10 -25 0 -29 -3 -18
-10z"/>
<path d="M4240 3880 c0 -5 6 -10 14 -10 8 0 18 5 21 10 3 6 -3 10 -14 10 -12
0 -21 -4 -21 -10z"/>
<path d="M4705 3880 c3 -5 13 -10 21 -10 8 0 14 5 14 10 0 6 -9 10 -21 10 -11
0 -17 -4 -14 -10z"/>
<path d="M8793 3825 c0 -22 2 -30 4 -17 2 12 2 30 0 40 -3 9 -5 -1 -4 -23z"/>
<path d="M4390 3835 c-159 -36 -279 -146 -334 -303 -25 -73 -26 -221 -1 -288
39 -103 126 -209 206 -249 61 -31 68 -42 62 -94 -3 -31 0 -59 10 -84 l16 -37
141 0 141 0 16 37 c10 25 13 53 10 86 l-6 48 67 43 c103 66 156 131 207 252
24 59 24 214 -1 286 -56 162 -185 274 -352 307 -66 14 -112 13 -182 -4z m363
-236 c21 -26 22 -78 2 -105 -8 -10 -15 -27 -15 -37 0 -10 -7 -20 -15 -23 -8
-4 -15 -11 -15 -18 0 -6 -22 -34 -50 -62 l-49 -51 49 -1 c56 -1 70 -7 70 -28
0 -11 -15 -14 -61 -14 -33 0 -68 4 -78 9 -13 8 -26 3 -52 -17 -36 -30 -141
-83 -200 -101 -42 -13 -126 -15 -133 -2 -8 13 18 21 67 21 23 0 51 7 61 15 11
8 30 15 42 15 12 0 27 7 34 15 7 8 18 15 24 15 6 1 25 12 41 26 27 22 28 26
13 35 -10 5 -18 16 -18 24 0 22 -21 29 -38 11 -14 -14 -17 -14 -33 0 -24 22
-39 10 -39 -32 0 -30 -3 -34 -25 -34 l-25 0 0 104 c0 58 4 107 9 111 5 3 26
-15 46 -40 21 -25 42 -45 49 -45 6 0 30 21 52 46 23 26 46 44 52 40 6 -3 8
-38 4 -91 -4 -69 -2 -85 9 -85 16 0 129 114 129 130 0 6 -24 10 -54 10 -88 0
-89 37 -1 46 36 3 50 1 59 -12 17 -22 33 -1 42 53 5 34 3 44 -15 59 -11 10
-21 25 -21 32 0 21 61 7 83 -19z m-235 -688 c12 -11 22 -23 22 -28 0 -13 -67
-46 -79 -39 -12 8 -15 69 -4 79 12 12 37 7 61 -12z"/>
<path d="M303 3833 c-18 -7 -16 -23 2 -23 8 0 15 7 15 15 0 8 -1 15 -2 14 -2
0 -9 -3 -15 -6z"/>
<path d="M386 3642 c-3 -5 9 -23 26 -41 17 -17 29 -33 27 -35 -2 -1 -24 -15
-49 -29 -44 -26 -33 -40 13 -16 17 10 24 8 42 -13 16 -19 25 -54 39 -148 9
-68 20 -128 22 -132 3 -4 14 -8 24 -8 32 0 40 -33 40 -159 l0 -120 -41 -11
c-45 -12 -44 -19 4 -35 48 -15 47 -42 -2 -55 -45 -12 -53 -25 -20 -33 25 -7
16 -27 -12 -27 -35 0 -20 -17 26 -29 25 -6 45 -14 45 -17 0 -15 -49 -43 -83
-49 -28 -5 -37 -11 -35 -23 2 -10 12 -18 23 -18 45 -4 94 -32 95 -56 0 -4 -18
-12 -41 -18 -45 -12 -44 -19 4 -35 30 -9 32 -13 37 -70 3 -33 3 -81 2 -107 -4
-46 -5 -48 -44 -59 -44 -11 -43 -18 5 -34 l32 -10 3 -197 c2 -190 2 -197 -18
-203 -12 -4 -20 -15 -20 -29 0 -13 -7 -40 -15 -59 -12 -29 -15 -85 -15 -273 0
-214 -2 -238 -17 -250 -11 -8 -13 -13 -6 -14 23 0 53 34 59 68 6 33 6 33 22
11 17 -24 18 -95 2 -114 -5 -7 -13 -46 -16 -88 -5 -49 -12 -78 -20 -81 -8 -3
-11 -12 -8 -21 5 -12 0 -14 -26 -9 -28 6 -32 4 -28 -12 2 -11 17 -22 36 -28
40 -11 41 -32 1 -40 -17 -3 -28 -10 -24 -16 9 -14 82 -12 92 2 9 17 34 -100
26 -127 -3 -11 -12 -35 -20 -53 -18 -38 -11 -52 17 -34 26 16 67 15 77 -1 4
-7 26 -26 48 -42 22 -16 44 -32 49 -37 6 -4 -4 -13 -22 -19 -79 -27 -14 -42
193 -43 124 0 156 2 182 17 18 9 45 17 62 17 28 0 30 -3 44 -62 l13 -63 13 63
c12 61 12 62 46 62 31 0 34 -3 40 -39 6 -36 10 -40 38 -43 42 -4 41 -22 0 -26
-19 -2 -33 1 -33 7 0 6 -4 11 -10 11 -5 0 -10 -11 -10 -24 0 -22 5 -25 42 -28
33 -2 44 -8 46 -22 6 -28 54 -67 77 -61 29 6 49 -9 42 -34 -3 -13 0 -21 7 -21
8 0 12 15 11 43 -1 43 -1 43 -45 30 -8 -2 -29 7 -45 21 -28 23 -31 30 -29 85
3 84 10 101 42 101 49 0 72 -12 79 -39 7 -28 53 -78 53 -58 0 7 -5 18 -11 24
-6 6 -8 24 -4 41 l6 29 83 0 c46 0 89 -3 96 -7 14 -9 28 -75 31 -145 2 -46 2
-44 9 23 5 40 11 84 14 97 6 24 7 25 31 9 14 -9 25 -22 25 -29 0 -21 60 -46
117 -50 65 -4 83 -13 59 -31 -33 -24 2 -23 52 2 46 23 52 30 68 80 10 33 22
54 31 54 17 0 65 -31 106 -69 l28 -26 18 23 c10 14 23 21 33 17 9 -4 27 4 43
19 40 37 61 34 56 -9 0 -7 85 -9 244 -7 199 3 246 1 250 -10 3 -7 9 -56 14
-108 l8 -95 2 71 c0 39 6 75 13 82 8 8 57 12 155 12 98 0 143 3 143 11 0 8
-30 10 -92 9 -159 -5 -198 -2 -198 15 0 12 13 15 60 15 49 0 64 4 82 22 18 18
35 23 96 25 l75 2 -6 -39 c-3 -22 -1 -40 4 -40 12 0 45 33 51 51 4 11 10 10
27 -5 17 -16 26 -17 45 -8 15 7 27 7 33 1 6 -6 27 -9 48 -7 34 3 42 9 62 46 1
2 15 1 32 -3 23 -5 31 -13 35 -36 19 -97 17 -91 34 -76 27 23 88 31 96 12 7
-19 40 -20 55 -1 10 12 16 12 39 0 22 -11 30 -11 47 0 17 12 26 12 52 1 29
-12 32 -11 52 16 23 31 28 75 9 82 -7 2 2 4 20 5 21 0 41 -7 59 -24 31 -29
110 -35 119 -9 9 21 24 8 24 -20 0 -41 16 -36 28 9 l11 44 81 -1 c66 0 80 -3
80 -16 1 -39 15 -45 68 -27 28 9 57 16 64 16 8 0 19 5 26 12 6 6 40 13 75 15
63 3 65 3 77 -27 15 -37 22 -37 53 0 l25 29 12 -29 c15 -36 20 -37 50 -5 27
29 57 31 115 10 58 -20 502 -20 560 0 43 16 105 20 105 8 1 -5 7 -30 14 -57
l13 -49 12 61 c12 61 12 62 46 62 31 0 34 -3 40 -39 6 -36 10 -40 38 -43 42
-4 41 -22 0 -26 -19 -2 -33 1 -33 7 0 6 -4 11 -10 11 -5 0 -10 -11 -10 -24 0
-22 5 -25 42 -28 33 -2 44 -8 46 -22 6 -30 54 -65 90 -66 25 0 32 -4 32 -20 0
-11 3 -20 8 -20 4 0 7 17 7 38 0 28 -4 36 -15 33 -60 -17 -104 19 -105 87 -1
26 3 62 8 80 7 26 14 32 35 32 49 0 72 -12 79 -39 7 -30 53 -79 53 -56 0 7 -5
15 -11 17 -8 3 -10 16 -5 40 l6 36 95 -1 95 -1 12 -61 c13 -65 11 -66 32 28 6
26 7 27 31 11 14 -9 25 -22 25 -29 0 -21 60 -46 117 -50 65 -4 83 -13 59 -31
-33 -24 1 -22 51 3 47 23 53 30 69 79 9 30 19 54 21 54 17 0 76 -33 107 -61
l38 -33 18 24 c10 13 22 20 29 16 6 -4 25 4 42 18 44 37 65 34 60 -9 0 -7 85
-9 244 -7 199 3 246 1 250 -10 3 -7 9 -56 14 -108 l8 -95 2 70 c0 40 6 76 13
83 8 8 57 12 155 12 96 0 143 4 143 11 0 7 -29 10 -82 9 -169 -4 -208 -1 -208
15 0 12 13 15 60 15 49 0 64 4 82 22 18 18 35 23 94 25 62 2 72 0 77 -16 2
-10 0 -26 -5 -35 -6 -10 -7 -20 -4 -23 11 -11 37 8 50 37 l12 30 22 -20 c12
-12 22 -26 22 -32 0 -7 9 -2 21 11 16 17 24 19 34 11 8 -6 31 -10 52 -8 28 2
41 9 50 28 9 17 22 26 44 27 17 2 45 9 62 17 57 25 91 35 140 42 47 6 70 21
45 28 -7 2 -26 7 -42 11 -27 6 -28 7 -11 25 10 11 28 20 39 21 12 0 37 7 56
14 l35 13 -32 7 -32 7 2 187 c1 167 3 187 19 199 23 16 23 45 1 78 -11 18 -13
28 -6 32 24 15 26 60 4 91 -17 23 -21 44 -21 105 0 69 2 76 19 76 11 0 23 -5
26 -10 8 -13 45 -13 45 0 0 6 -11 15 -24 19 -13 5 -26 17 -29 25 -4 9 -13 16
-22 16 -13 0 -15 18 -14 113 1 61 3 103 6 92 2 -11 6 -30 9 -42 2 -13 11 -23
19 -23 8 0 15 -4 15 -10 0 -5 17 -10 38 -10 l37 1 -32 14 c-58 25 -53 100 9
132 l23 13 -23 0 c-13 0 -40 -8 -60 -18 l-37 -18 -2 116 c-1 63 1 108 4 100
10 -27 36 -50 55 -50 22 0 24 25 3 34 -17 6 -21 72 -5 96 8 12 11 11 16 -8 5
-19 49 -52 69 -52 13 0 3 21 -25 52 -17 18 -33 40 -36 50 -7 25 26 68 51 66
11 -1 26 1 33 5 16 10 31 1 42 -27 8 -19 9 -18 16 12 3 18 11 35 15 38 5 3 9
12 9 20 0 10 -7 13 -24 8 -19 -4 -26 -1 -31 15 -8 27 -25 18 -18 -9 7 -28 -12
-48 -42 -42 -15 2 -25 0 -25 -7 0 -8 -11 -11 -27 -9 -35 4 -44 42 -16 64 13
11 14 17 6 20 -19 8 -16 32 5 37 9 2 24 -2 32 -9 20 -16 52 -21 56 -9 7 20
-12 33 -56 40 -24 4 -48 9 -52 11 -5 3 -8 34 -8 70 0 56 3 68 25 88 14 13 25
30 25 37 -1 10 -5 8 -15 -5 -21 -28 -35 -10 -35 46 0 32 -6 59 -18 76 -39 57
-31 79 36 103 34 12 44 30 15 27 -39 -3 -49 4 -65 45 -20 48 -22 64 -8 69 14
4 21 150 8 166 -8 9 -7 20 2 37 7 13 10 33 7 44 -4 18 3 23 51 38 32 9 73 17
92 17 33 1 35 3 35 36 0 31 3 35 25 35 25 0 25 1 26 88 1 95 -11 122 -44 100
-13 -8 -16 -23 -14 -69 2 -33 8 -63 13 -69 15 -16 10 -27 -10 -20 -16 5 -20 0
-23 -26 -4 -44 -26 -56 -78 -40 -33 10 -40 16 -34 29 4 9 9 31 12 47 2 17 12
37 22 45 15 13 17 24 10 70 -6 50 -5 56 17 74 40 31 73 70 70 81 -2 6 -60 10
-147 10 l-143 0 2 -1450 c1 -797 -1 -1458 -4 -1467 -4 -10 -22 -27 -40 -38
-32 -20 -37 -20 -3783 -20 l-3750 0 -32 31 -31 32 2 1456 2 1456 -141 3 c-77
1 -143 -1 -146 -6z m120 -128 c23 -23 31 -44 19 -44 -8 0 -54 53 -55 63 0 14
13 7 36 -19z m7901 -916 c-2 -13 -4 -3 -4 22 0 25 2 35 4 23 2 -13 2 -33 0
-45z m-4377 -2024 c0 -2 -17 -4 -37 -3 -29 0 -33 2 -18 8 18 7 55 4 55 -5z
m-1953 -37 c17 -10 17 -37 1 -37 -14 0 -38 45 -38 69 1 12 4 11 12 -4 6 -11
17 -24 25 -28z m67 27 c9 -25 7 -34 -8 -34 -19 0 -29 17 -22 35 7 20 22 19 30
-1z m914 9 c-10 -2 -28 -2 -40 0 -13 2 -5 4 17 4 22 1 32 -1 23 -4z m3519 -36
c17 -10 17 -37 1 -37 -14 0 -38 45 -38 69 1 12 4 11 12 -4 6 -11 17 -24 25
-28z m67 27 c9 -25 7 -34 -8 -34 -19 0 -29 17 -22 35 7 20 22 19 30 -1z
m-4644 -20 c0 -8 7 -14 15 -14 8 0 15 -7 15 -15 0 -8 -6 -15 -12 -15 -17 1
-51 48 -43 60 8 13 25 3 25 -16z m4500 1 c0 -7 8 -16 17 -19 11 -5 13 -10 6
-17 -15 -15 -57 27 -49 47 7 18 26 9 26 -11z m-4561 -32 c1 -22 -16 -14 -22 9
-8 28 4 47 14 22 4 -10 8 -25 8 -31z m4497 32 c4 -8 3 -23 -1 -32 -7 -17 -8
-16 -15 2 -5 11 -9 26 -9 33 -1 17 18 15 25 -3z m-2690 -26 c10 -17 -13 -36
-27 -22 -12 12 -4 33 11 33 5 0 12 -5 16 -11z m112 -6 c2 -8 -6 -13 -22 -13
-17 0 -26 5 -26 16 0 19 41 16 48 -3z m90 0 c2 -8 -6 -13 -22 -13 -17 0 -26 5
-26 16 0 19 41 16 48 -3z m72 -3 c0 -5 -6 -10 -14 -10 -8 0 -18 5 -21 10 -3 6
3 10 14 10 12 0 21 -4 21 -10z"/>
<path d="M253 3593 c-17 -6 -16 -19 3 -42 10 -11 23 -17 31 -14 12 5 12 8 0
22 -8 9 -16 21 -18 27 -2 6 -10 9 -16 7z"/>
<path d="M8845 3490 c-7 -11 4 -60 14 -60 10 0 31 52 25 61 -7 12 -31 11 -39
-1z"/>
<path d="M8730 3416 c0 -20 5 -36 11 -36 6 0 9 -9 6 -20 -5 -18 8 -38 19 -27
7 7 -17 106 -27 113 -5 3 -9 -11 -9 -30z"/>
<path d="M8850 3406 c0 -8 7 -16 15 -20 17 -6 18 -4 9 18 -8 20 -24 21 -24 2z"/>
<path d="M205 3310 c-17 -19 -19 -19 -37 -3 -16 15 -20 15 -33 2 -22 -22 1
-46 51 -54 39 -6 42 -5 47 22 8 43 -5 58 -28 33z"/>
<path d="M8672 3295 c-32 -23 -27 -35 13 -35 38 0 42 7 22 33 -11 16 -14 16
-35 2z"/>
<path d="M8793 3293 c-7 -2 -13 -11 -13 -19 0 -11 8 -14 28 -12 16 2 27 9 27
18 0 15 -21 22 -42 13z"/>
<path d="M8895 3280 c-3 -6 1 -13 10 -16 19 -8 30 0 20 15 -8 14 -22 14 -30 1z"/>
<path d="M357 3254 c-9 -9 -9 -121 -1 -152 4 -13 12 -21 18 -19 7 2 10 31 7
83 -3 76 -10 102 -24 88z"/>
<path d="M303 3170 c0 -25 2 -35 4 -22 2 12 2 32 0 45 -2 12 -4 2 -4 -23z"/>
<path d="M424 3169 c0 -24 3 -35 8 -27 10 16 10 55 1 61 -5 3 -8 -13 -9 -34z"/>
<path d="M8445 3120 c-7 -23 10 -50 31 -50 9 0 14 12 14 35 0 28 -4 35 -19 35
-11 0 -23 -9 -26 -20z"/>
<path d="M60 3024 c0 -14 3 -14 15 -4 8 7 15 14 15 16 0 2 -7 4 -15 4 -8 0
-15 -7 -15 -16z"/>
<path d="M8446 2968 c-3 -13 -1 -27 4 -32 15 -15 40 2 40 29 0 33 -35 35 -44
3z"/>
<path d="M57 2935 c-9 -22 8 -26 21 -4 10 15 10 19 -2 19 -8 0 -16 -7 -19 -15z"/>
<path d="M390 2909 c0 -11 5 -17 10 -14 6 3 10 13 10 21 0 8 -4 14 -10 14 -5
0 -10 -9 -10 -21z"/>
<path d="M8580 2835 c0 -22 4 -34 10 -30 6 3 10 17 10 30 0 13 -4 27 -10 30
-6 4 -10 -8 -10 -30z"/>
<path d="M8632 2815 c3 -31 1 -58 -4 -61 -17 -11 -7 -24 19 -24 21 0 24 3 15
12 -7 7 -9 31 -5 70 5 51 4 58 -12 58 -15 0 -17 -7 -13 -55z"/>
<path d="M8690 2839 c0 -15 3 -35 6 -44 6 -14 9 -13 22 6 l15 22 18 -24 17
-23 7 36 c9 48 3 55 -45 55 -37 0 -40 -2 -40 -28z"/>
<path d="M60 2844 c0 -14 3 -14 15 -4 8 7 15 14 15 16 0 2 -7 4 -15 4 -8 0
-15 -7 -15 -16z"/>
<path d="M450 2795 c0 -8 5 -15 10 -15 6 0 10 7 10 15 0 8 -4 15 -10 15 -5 0
-10 -7 -10 -15z"/>
<path d="M60 2754 c0 -14 3 -14 15 -4 8 7 15 14 15 16 0 2 -7 4 -15 4 -8 0
-15 -7 -15 -16z"/>
<path d="M8696 2753 c-11 -11 -6 -23 9 -23 8 0 15 4 15 9 0 13 -16 22 -24 14z"/>
<path d="M8756 2753 c-11 -11 -6 -23 9 -23 8 0 15 4 15 9 0 13 -16 22 -24 14z"/>
<path d="M168 2595 c-2 -2 -2 -24 0 -49 5 -58 29 -64 34 -8 4 48 22 48 26 -1
3 -30 7 -37 20 -35 11 2 17 13 17 28 0 14 4 31 9 38 4 7 6 16 2 19 -6 6 -103
13 -108 8z"/>
<path d="M8765 2591 c-19 -8 -19 -8 2 -15 25 -8 46 0 38 15 -7 10 -13 10 -40
0z"/>
<path d="M290 2540 c-9 -17 -8 -20 13 -20 31 0 39 9 22 26 -18 18 -22 18 -35
-6z"/>
<path d="M287 2399 c-10 -11 -16 -28 -14 -37 4 -14 6 -13 12 6 4 12 14 22 21
22 8 0 14 7 14 15 0 21 -12 19 -33 -6z"/>
<path d="M157 2193 c18 -2 50 -2 70 0 21 2 7 4 -32 4 -38 0 -55 -2 -38 -4z"/>
<path d="M8625 2159 c-5 -20 -11 -29 -21 -25 -18 7 -18 -5 -1 -28 13 -17 14
-17 30 8 19 28 22 62 8 70 -5 4 -12 -8 -16 -25z"/>
<path d="M350 2163 c8 -3 23 -10 33 -15 12 -6 17 -5 17 7 0 10 -10 15 -32 14
-18 0 -26 -3 -18 -6z"/>
<path d="M390 2056 c0 -9 7 -16 16 -16 9 0 14 5 12 12 -6 18 -28 21 -28 4z"/>
<path d="M8730 2044 c0 -22 2 -25 15 -14 12 10 13 16 4 26 -16 20 -19 18 -19
-12z"/>
<path d="M8775 2050 c-4 -6 12 -10 42 -10 35 0 44 3 33 10 -20 13 -67 13 -75
0z"/>
<path d="M180 1986 c0 -19 39 -31 53 -17 13 13 10 16 -25 25 -21 5 -28 3 -28
-8z"/>
<path d="M50 1981 c0 -18 18 -21 30 -6 10 13 9 15 -9 15 -11 0 -21 -4 -21 -9z"/>
<path d="M8820 1974 c0 -14 3 -14 15 -4 8 7 15 14 15 16 0 2 -7 4 -15 4 -8 0
-15 -7 -15 -16z"/>
<path d="M410 1940 c6 -11 22 -21 35 -21 14 -1 30 -2 37 -3 6 -1 13 5 16 13 3
10 -2 13 -22 9 -14 -3 -34 1 -43 8 -26 19 -35 17 -23 -6z"/>
<path d="M8726 1874 c-4 -10 3 -14 29 -14 43 0 44 5 6 18 -23 8 -31 7 -35 -4z"/>
<path d="M8580 1870 c-21 -7 -18 -8 18 -9 26 -1 41 3 37 9 -7 11 -19 11 -55 0z"/>
<path d="M234 1819 c-3 -6 -6 -87 -5 -179 2 -110 -2 -170 -8 -175 -6 -3 -14 1
-17 9 -11 27 -24 17 -24 -17 0 -40 8 -51 27 -36 13 11 15 9 17 -21 1 -9 11
-15 25 -15 31 0 43 38 30 92 -11 51 -11 294 1 313 5 9 5 19 -2 27 -13 16 -34
17 -44 2z"/>
<path d="M180 1795 c0 -8 4 -15 9 -15 5 0 11 7 15 15 3 9 0 15 -9 15 -8 0 -15
-7 -15 -15z"/>
<path d="M4308 1533 c-3 -35 -6 -38 -35 -41 -41 -4 -54 -21 -55 -73 0 -33 5
-46 23 -60 29 -23 37 -23 83 -4 l36 15 0 84 c0 97 -5 116 -30 116 -14 0 -20
-9 -22 -37z m0 -116 c3 -12 -3 -17 -22 -17 -25 0 -35 18 -19 34 12 12 38 2 41
-17z"/>
<path d="M3980 1466 c0 -13 7 -29 15 -36 8 -7 15 -21 15 -31 0 -20 35 -44 50
-34 6 3 10 14 10 23 0 9 7 26 15 36 30 40 10 87 -23 54 -9 -9 -18 -9 -37 0
-37 17 -45 15 -45 -12z"/>
<path d="M4134 1477 c-3 -8 -4 -39 -2 -68 3 -47 6 -54 25 -57 27 -4 36 22 31
89 -2 37 -7 45 -26 47 -12 2 -24 -3 -28 -11z"/>
<path d="M4947 1484 c-11 -11 3 -24 24 -24 12 0 19 5 17 13 -5 14 -31 21 -41
11z"/>
<path d="M4860 1420 c0 -5 7 -10 15 -10 8 0 15 5 15 10 0 6 -7 10 -15 10 -8 0
-15 -4 -15 -10z"/>
<path d="M8621 1386 c-11 -13 -11 -20 -3 -28 15 -15 24 -5 20 23 -3 21 -4 21
-17 5z"/>
<path d="M295 1273 c-10 -3 -31 -18 -45 -33 -20 -21 -33 -27 -53 -23 -16 3
-27 1 -27 -6 0 -6 17 -11 38 -11 26 0 43 -7 56 -21 31 -36 105 -7 106 42 0 16
-36 60 -48 58 -4 -1 -16 -4 -27 -6z"/>
<path d="M8642 1218 c1 -47 2 -53 5 -23 3 22 9 45 15 52 10 13 3 33 -13 33 -5
0 -8 -28 -7 -62z"/>
<path d="M8622 1003 c-47 -6 -29 -23 24 -23 32 0 44 4 42 13 -5 14 -19 16 -66
10z"/>
<path d="M8560 854 c-14 -7 -23 -14 -20 -14 51 -6 199 -3 196 5 -2 6 -29 9
-60 7 -31 -1 -65 2 -74 7 -12 6 -26 5 -42 -5z"/>
<path d="M8975 841 c-6 -11 9 -23 19 -14 9 9 7 23 -3 23 -6 0 -12 -4 -16 -9z"/>
<path d="M8957 795 c-18 -13 -18 -14 3 -25 20 -11 20 -13 6 -29 -15 -16 -15
-19 2 -34 10 -10 22 -17 25 -17 4 0 7 27 7 60 0 63 -8 72 -43 45z"/>
<path d="M0 786 c0 -18 37 -27 50 -12 13 16 3 26 -27 26 -13 0 -23 -6 -23 -14z"/>
<path d="M8719 790 c-9 -5 -50 -8 -91 -6 -63 2 -80 0 -99 -16 l-24 -20 30 8
c44 11 168 13 182 2 7 -5 19 -8 27 -6 12 2 12 7 3 25 -9 16 -16 19 -28 13z"/>
<path d="M360 775 c0 -8 5 -15 10 -15 6 0 10 7 10 15 0 8 -4 15 -10 15 -5 0
-10 -7 -10 -15z"/>
<path d="M20 726 c0 -8 4 -17 9 -20 11 -7 33 18 24 27 -12 12 -33 7 -33 -7z"/>
<path d="M355 700 c-8 -24 7 -46 24 -36 15 10 14 31 -3 45 -11 10 -16 8 -21
-9z"/>
<path d="M443 701 c-7 -10 -9 -22 -6 -25 13 -12 21 -5 21 19 0 30 0 30 -15 6z"/>
<path d="M8185 561 c-4 -7 -4 -34 0 -62 7 -47 8 -49 24 -35 10 9 24 16 33 16
8 0 27 11 42 25 38 35 76 38 76 5 0 -15 -7 -20 -25 -20 -14 0 -25 -4 -25 -10
0 -14 34 -12 48 2 10 10 17 10 32 0 24 -15 50 -16 50 -2 0 6 -11 10 -25 10
-29 0 -36 34 -9 44 26 10 34 7 46 -19 14 -30 28 -33 28 -5 0 16 7 20 35 20 19
0 35 4 35 8 0 5 -67 12 -150 16 -82 3 -163 9 -179 12 -17 4 -31 1 -36 -5z m70
-51 c0 -8 -10 -16 -22 -18 -18 -3 -23 2 -23 18 0 16 5 21 23 18 12 -2 22 -10
22 -18z"/>
<path d="M1494 532 c-35 -22 -39 -112 -7 -112 12 0 13 3 3 15 -14 17 -4 55 16
55 8 0 14 9 14 19 0 23 -11 33 -26 23z"/>
<path d="M5976 506 c-19 -30 -11 -86 11 -86 12 0 13 3 3 15 -14 17 -4 55 16
55 8 0 14 9 14 20 0 28 -24 25 -44 -4z"/>
<path d="M2787 494 c-11 -11 3 -24 24 -24 12 0 19 5 17 13 -5 14 -31 21 -41
11z"/>
<path d="M7297 494 c-13 -13 -7 -24 14 -24 11 0 19 5 17 12 -5 14 -22 21 -31
12z"/>
<path d="M817 483 c-14 -13 -6 -33 13 -33 13 0 20 7 20 20 0 19 -20 27 -33 13z"/>
<path d="M2606 474 c-8 -22 -8 -24 8 -24 8 0 16 6 19 13 3 10 9 10 26 0 29
-18 33 -16 19 7 -15 24 -63 27 -72 4z"/>
<path d="M5317 483 c-14 -13 -6 -33 13 -33 13 0 20 7 20 20 0 19 -20 27 -33
13z"/>
<path d="M7106 474 c-8 -22 -8 -24 8 -24 8 0 16 6 19 13 3 10 9 10 26 0 29
-18 33 -16 19 7 -15 24 -63 27 -72 4z"/>
<path d="M8491 487 c2 -1 12 -9 22 -16 14 -12 17 -11 17 3 0 10 -8 16 -22 16
-12 0 -19 -1 -17 -3z"/>
<path d="M1523 441 c-10 -15 -9 -20 2 -25 11 -4 15 2 15 19 0 30 -2 31 -17 6z"/>
<path d="M6023 441 c-10 -15 -9 -20 2 -25 11 -4 15 2 15 19 0 30 -2 31 -17 6z"/>
<path d="M6298 425 c-7 -33 0 -51 13 -38 5 5 5 22 0 38 l-8 30 -5 -30z"/>
<path d="M2795 430 c-3 -5 3 -10 15 -10 12 0 18 5 15 10 -3 6 -10 10 -15 10
-5 0 -12 -4 -15 -10z"/>
<path d="M3844 409 c3 -17 6 -51 6 -75 0 -36 3 -44 18 -44 16 0 18 7 14 63 -4
78 -7 87 -28 87 -13 0 -15 -6 -10 -31z"/>
<path d="M7290 430 c0 -5 9 -10 21 -10 11 0 17 5 14 10 -3 6 -13 10 -21 10 -8
0 -14 -4 -14 -10z"/>
<path d="M8347 432 c-3 -6 -1 -111 2 -134 1 -5 8 -8 16 -8 22 0 22 135 0 143
-8 4 -16 3 -18 -1z"/>
<path d="M2580 407 c0 -9 5 -17 11 -17 7 0 18 -8 25 -17 7 -10 14 -13 14 -7 0
6 -11 21 -25 34 -21 19 -25 21 -25 7z"/>
<path d="M2684 406 c-10 -8 -15 -18 -11 -22 4 -4 15 0 24 9 22 21 12 31 -13
13z"/>
<path d="M7080 409 c1 -15 50 -56 50 -41 0 5 -11 19 -25 32 -17 16 -25 19 -25
9z"/>
<path d="M7184 406 c-10 -8 -15 -18 -11 -22 4 -4 15 0 24 9 22 21 12 31 -13
13z"/>
<path d="M3990 389 c0 -11 5 -17 10 -14 6 3 10 13 10 21 0 8 -4 14 -10 14 -5
0 -10 -9 -10 -21z"/>
<path d="M8490 389 c0 -11 5 -17 10 -14 6 3 10 13 10 21 0 8 -4 14 -10 14 -5
0 -10 -9 -10 -21z"/>
<path d="M501 348 c7 -13 9 -40 5 -69 -4 -31 -3 -49 4 -49 6 0 10 27 10 64 0
48 -4 65 -15 70 -13 5 -14 2 -4 -16z"/>
<path d="M823 353 c-23 -15 -31 -61 -17 -97 12 -32 24 -14 24 37 0 29 5 58 12
65 16 16 8 14 -19 -5z"/>
<path d="M5001 348 c7 -13 9 -40 5 -69 -4 -31 -3 -49 4 -49 6 0 10 27 10 64 0
48 -4 65 -15 70 -13 5 -14 2 -4 -16z"/>
<path d="M5317 350 c-21 -21 -21 -101 1 -108 8 -3 12 12 12 50 0 30 5 59 12
66 7 7 8 12 3 11 -6 0 -18 -8 -28 -19z"/>
<path d="M902 300 c0 -19 2 -27 5 -17 2 9 2 25 0 35 -3 9 -5 1 -5 -18z"/>
<path d="M5398 308 c-3 -15 -2 -32 2 -38 11 -18 18 10 10 40 l-6 25 -6 -27z"/>
<path d="M5637 299 c8 -8 16 -8 30 0 16 9 14 10 -11 11 -22 0 -27 -3 -19 -11z"/>
<path d="M2094 235 c-27 -21 -7 -31 51 -27 45 4 46 5 29 23 -21 23 -53 24 -80
4z"/>
<path d="M6598 239 c-33 -18 -19 -29 39 -29 55 0 56 0 38 20 -20 22 -50 25
-77 9z"/>
<path d="M448 203 c-2 -17 -12 -32 -28 -40 l-25 -13 30 0 c26 0 33 5 43 33 15
43 15 47 -2 47 -9 0 -16 -12 -18 -27z"/>
<path d="M4950 206 c0 -26 -14 -41 -45 -49 -12 -3 -6 -5 15 -6 32 -1 37 3 48
32 15 43 15 47 -3 47 -9 0 -15 -9 -15 -24z"/>
<path d="M8400 198 c0 -34 2 -34 18 -1 9 17 9 22 -3 27 -11 4 -15 -2 -15 -26z"/>
<path d="M1530 207 c0 -19 21 -37 42 -37 27 0 22 13 -12 32 -22 12 -30 14 -30
5z"/>
<path d="M3660 218 c-4 -20 -5 -126 -2 -135 10 -29 23 -10 21 30 -2 24 1 49 5
55 9 15 -2 52 -15 52 -5 0 -9 -1 -9 -2z"/>
<path d="M3904 205 c-11 -27 2 -37 14 -11 7 16 8 26 1 26 -5 0 -12 -7 -15 -15z"/>
<path d="M6032 204 c4 -23 35 -41 47 -29 7 7 0 16 -20 28 -28 15 -30 15 -27 1z"/>
<path d="M8158 158 c-5 -65 -2 -88 12 -88 9 0 19 116 12 138 -10 29 -20 8 -24
-50z"/>
<path d="M8245 179 c-4 -22 -4 -43 -1 -46 9 -10 13 -1 19 45 7 54 -9 55 -18 1z"/>
<path d="M8337 214 c-4 -4 -7 -14 -7 -23 0 -11 3 -12 11 -4 6 6 10 16 7 23 -2
6 -7 8 -11 4z"/>
<path d="M250 196 c0 -33 13 -46 44 -46 l31 1 -27 15 c-16 8 -28 21 -28 29 0
8 -4 15 -10 15 -5 0 -10 -6 -10 -14z"/>
<path d="M3746 177 c-5 -21 -6 -41 -2 -44 12 -12 17 5 14 43 l-4 39 -8 -38z"/>
<path d="M4746 202 c-10 -17 25 -52 52 -51 27 0 27 0 4 10 -13 5 -26 18 -29
29 -6 21 -18 26 -27 12z"/>
<path d="M1290 173 c0 -13 5 -23 10 -23 13 0 13 11 0 30 -8 12 -10 11 -10 -7z"/>
<path d="M1345 177 c-4 -10 -5 -21 -1 -24 10 -10 18 4 13 24 -4 17 -4 17 -12
0z"/>
<path d="M5845 177 c-4 -10 -5 -21 -1 -24 10 -10 18 4 13 24 -4 17 -4 17 -12
0z"/>
<path d="M2640 156 c0 -10 28 -13 41 -5 10 6 7 9 -13 9 -16 0 -28 -2 -28 -4z"/>
<path d="M7140 156 c0 -10 28 -13 41 -5 10 6 7 9 -13 9 -16 0 -28 -2 -28 -4z"/>
<path d="M6296 143 c-11 -11 -6 -23 9 -23 8 0 15 4 15 9 0 13 -16 22 -24 14z"/>
<path d="M4107 115 c-7 -16 1 -45 12 -45 17 1 33 19 29 36 -4 24 -33 30 -41 9z"/>
<path d="M8606 115 c-6 -17 2 -45 14 -45 15 0 32 30 26 45 -7 19 -32 19 -40 0z"/>
<path d="M2846 111 c-8 -12 21 -34 34 -26 8 5 8 11 -1 21 -13 16 -25 18 -33 5z"/>
<path d="M4344 105 c-4 -9 -2 -21 3 -26 14 -14 45 1 41 20 -4 22 -37 26 -44 6z"/>
<path d="M7350 106 c0 -18 17 -29 30 -21 8 5 7 11 -1 21 -15 18 -29 18 -29 0z"/>
<path d="M8846 112 c-8 -13 6 -92 16 -92 5 0 8 11 6 24 -1 13 3 30 10 39 8 9
11 21 7 27 -7 12 -32 13 -39 2z"/>
<path d="M2610 100 c0 -5 15 -10 33 -9 27 0 29 2 12 9 -28 12 -45 12 -45 0z"/>
<path d="M7110 100 c0 -5 15 -10 33 -9 27 0 29 2 12 9 -28 12 -45 12 -45 0z"/>
<path d="M2095 51 c-3 -10 -2 -26 1 -36 7 -17 8 -17 20 0 11 15 22 17 66 11
29 -4 56 -13 60 -19 5 -8 12 -6 22 8 18 26 3 47 -29 39 -13 -3 -26 -1 -29 5
-4 6 -29 11 -56 11 -39 0 -50 -4 -55 -19z"/>
<path d="M6600 35 c0 -36 1 -37 14 -20 13 17 20 18 77 9 46 -8 69 -8 85 1 l21
11 -26 13 c-14 7 -59 15 -98 18 l-73 6 0 -38z"/>
<path d="M1860 36 c0 -14 5 -26 10 -26 6 0 10 9 10 19 0 11 -4 23 -10 26 -6 4
-10 -5 -10 -19z"/>
<path d="M4110 50 c0 -8 8 -24 16 -35 16 -19 16 -19 9 5 -9 31 -25 50 -25 30z"/>
<path d="M4230 40 c0 -11 5 -20 10 -20 6 0 10 9 10 20 0 11 -4 20 -10 20 -5 0
-10 -9 -10 -20z"/>
<path d="M4350 41 c0 -12 5 -21 10 -21 6 0 10 6 10 14 0 8 -4 18 -10 21 -5 3
-10 -3 -10 -14z"/>
<path d="M6360 36 c0 -14 5 -26 10 -26 6 0 10 9 10 19 0 11 -4 23 -10 26 -6 4
-10 -5 -10 -19z"/>
<path d="M8610 46 c0 -8 5 -18 10 -21 6 -3 10 1 10 9 0 8 -4 18 -10 21 -5 3
-10 -1 -10 -9z"/>
<path d="M8730 40 c0 -11 5 -20 10 -20 6 0 10 9 10 20 0 11 -4 20 -10 20 -5 0
-10 -9 -10 -20z"/>
<path d="M1487 44 c-8 -8 1 -24 14 -24 5 0 9 7 9 15 0 15 -12 20 -23 9z"/>
<path d="M5987 44 c-8 -8 1 -24 14 -24 5 0 9 7 9 15 0 15 -12 20 -23 9z"/>
<path d="M1540 14 l-25 -14 28 0 c17 0 27 5 27 15 0 8 -1 15 -2 14 -2 -1 -14
-7 -28 -15z"/>
<path d="M3800 10 c0 -5 11 -10 25 -10 14 0 25 5 25 10 0 6 -11 10 -25 10 -14
0 -25 -4 -25 -10z"/>
<path d="M6035 10 c-18 -8 -17 -9 8 -9 15 -1 27 4 27 9 0 12 -8 12 -35 0z"/>
<path d="M8305 10 c-4 -6 5 -10 19 -10 14 0 26 5 26 10 0 6 -9 10 -19 10 -11
0 -23 -4 -26 -10z"/>
</g>
</svg>
