<?xml version="1.0" standalone="no"?>
<!DOCTYPE svg PUBLIC "-//W3C//DTD SVG 20010904//EN"
 "http://www.w3.org/TR/2001/REC-SVG-20010904/DTD/svg10.dtd">
<svg version="1.0" xmlns="http://www.w3.org/2000/svg"
 width="300.000000pt" height="300.000000pt" viewBox="0 0 300.000000 300.000000"
 preserveAspectRatio="xMidYMid meet">
<metadata>
Created by potrace 1.10, written by Peter Selinger 2001-2011
</metadata>
<g transform="translate(0.000000,300.000000) scale(0.050000,-0.050000)"
fill="#ff0000" stroke="none">
<path d="M129 5984 c-75 -7 -143 -102 -103 -142 18 -18 17 -28 -6 -43 -17 -10
-21 -19 -9 -19 44 0 95 85 73 121 -28 44 -12 59 61 59 51 0 57 -6 51 -55 -4
-38 -17 -54 -41 -52 -19 1 -35 -5 -35 -14 0 -62 211 -75 227 -14 13 51 1 75
-40 75 -23 0 -28 13 -19 50 7 29 4 50 -8 50 -11 0 -20 -9 -20 -20 0 -23 -53
-27 -63 -5 -4 8 -35 12 -68 9z m131 -86 c0 -29 9 -39 30 -31 20 8 30 0 30 -23
0 -24 -18 -35 -62 -36 -53 -2 -60 3 -50 40 6 23 12 53 12 67 0 14 9 25 20 25
11 0 20 -19 20 -42z"/>
<path d="M707 5985 c6 -10 -26 -20 -71 -22 -125 -5 -118 -23 9 -23 71 0 115
-9 122 -25 7 -17 10 -15 11 5 1 17 -17 42 -40 57 -23 14 -37 18 -31 8z"/>
<path d="M862 5980 c-1 -16 -8 -52 -16 -80 -12 -45 -10 -47 22 -22 31 26 33
24 24 -25 -10 -58 20 -74 34 -18 5 19 10 6 12 -30 4 -113 129 -83 145 35 5 39
20 51 67 57 33 3 74 19 92 35 28 25 35 25 58 -1 14 -18 57 -31 98 -31 56 0 77
-10 92 -45 11 -25 40 -54 66 -65 56 -25 49 -71 -16 -104 -55 -27 -85 -15 -39
17 23 16 19 18 -16 11 -30 -7 -45 -1 -45 18 0 15 10 26 23 23 12 -3 26 6 31
20 5 14 -5 25 -22 25 -18 0 -32 -10 -32 -22 0 -16 -9 -15 -30 2 -16 14 -30 42
-30 62 0 21 -13 38 -30 38 -52 0 -38 -96 15 -104 27 -3 47 -22 50 -46 6 -45
-33 -112 -47 -79 -4 11 -44 17 -87 13 -71 -7 -77 -4 -67 34 8 31 -2 46 -43 62
-71 27 -71 27 -71 -22 0 -31 -9 -39 -33 -29 -19 7 -40 2 -48 -10 -9 -16 -34
-17 -84 -3 -39 11 -79 13 -88 4 -56 -52 -107 -43 -107 20 0 80 -45 71 -63 -12
-7 -32 -13 -48 -15 -36 -1 13 -24 18 -52 13 -37 -7 -50 -1 -50 23 0 44 59 65
84 30 16 -23 18 -23 11 2 -14 50 -82 34 -111 -25 -14 -30 -37 -55 -50 -55 -15
0 -12 8 6 20 23 15 23 19 3 20 -14 0 -37 -27 -49 -59 -35 -94 -74 -94 -74 0 0
66 7 79 40 79 37 0 42 10 48 100 3 43 62 48 121 9 48 -32 51 -32 51 1 0 32 3
32 50 2 45 -29 50 -30 50 -2 0 45 77 1 98 -55 15 -41 16 -40 26 11 7 37 2 54
-17 54 -15 0 -47 11 -70 25 -34 20 -44 20 -51 0 -7 -19 -19 -19 -52 -2 -31 17
-44 17 -50 0 -5 -16 -25 -13 -67 9 -74 38 -117 11 -117 -74 0 -44 -9 -58 -39
-58 -45 0 -58 -53 -66 -260 l-5 -130 -114 -3 -115 -3 -5 203 c-6 186 -9 203
-46 209 -34 5 -40 -6 -40 -73 0 -44 7 -75 15 -70 8 5 15 36 15 68 0 33 10 59
21 59 14 0 20 -67 18 -188 -3 -103 2 -198 10 -211 8 -13 -8 -45 -37 -75 -62
-62 -68 -138 -13 -156 25 -8 35 -24 28 -46 -9 -30 -7 -30 13 1 30 48 60 26 60
-45 0 -66 -34 -98 -53 -50 -10 27 -16 28 -29 7 -12 -18 -18 -3 -18 43 0 49 -6
62 -18 42 -21 -33 -9 -77 36 -130 30 -35 29 -36 -13 -23 -33 10 -45 6 -45 -18
0 -44 28 -39 98 21 93 78 51 279 -50 240 -42 -16 -34 35 15 97 36 46 53 52
108 42 38 -7 71 -3 79 8 31 51 110 23 110 -39 0 -69 -11 -74 -57 -25 -18 20
-26 27 -18 16 8 -10 15 -44 15 -76 0 -31 13 -61 29 -67 37 -15 37 -305 -1
-343 -16 -16 -30 -18 -38 -5 -7 11 -2 20 10 20 12 0 17 9 10 20 -23 38 -107
20 -146 -30 -56 -71 -139 -68 -150 5 -4 30 -9 -13 -11 -97 -3 -135 2 -156 42
-190 45 -38 45 -38 10 4 -63 74 -48 208 24 208 111 0 70 -244 -45 -266 -24 -5
-4 -11 46 -14 l90 -6 -90 -14 -90 -14 85 -3 c58 -2 85 -12 85 -31 0 -15 15
-33 32 -40 21 -8 29 -27 22 -52 -7 -26 0 -40 18 -40 15 0 28 -10 28 -22 0 -13
-18 -18 -40 -12 -22 6 -35 2 -29 -8 6 -10 49 -13 95 -7 79 11 82 10 45 -20
-38 -31 -38 -31 0 -60 35 -27 36 -30 4 -30 -44 -1 -45 -33 -2 -58 53 -29 -34
-49 -102 -24 -29 12 -96 20 -147 18 -73 -3 -80 -5 -29 -11 79 -10 85 -40 10
-52 -30 -5 19 -5 110 -1 l165 9 -3 -76 c-1 -49 -6 -59 -11 -30 -16 80 -134 54
-142 -31 -5 -53 -15 -65 -54 -65 -71 0 -142 -106 -105 -159 27 -38 27 -38 52
2 18 28 19 48 5 65 -28 33 11 72 72 72 38 0 46 -11 46 -60 0 -47 -9 -60 -40
-60 -112 0 -23 -52 110 -65 51 -4 61 -14 64 -65 2 -33 -1 -44 -7 -25 -8 27
-32 35 -109 35 l-100 0 6 -145 6 -145 90 -3 c63 -2 72 1 30 8 l-60 11 50 15
c48 14 48 15 5 17 -73 3 -68 222 5 222 42 0 50 -9 50 -60 0 -53 7 -60 58 -60
53 0 94 -41 85 -85 -2 -8 11 -15 27 -15 17 0 30 -13 30 -30 0 -16 9 -30 20
-30 11 0 20 10 20 21 0 12 10 15 21 8 12 -7 16 -28 9 -46 -10 -26 -7 -28 13
-8 33 33 104 33 85 0 -11 -20 -8 -20 13 0 41 38 111 34 79 -5 -14 -17 -16 -30
-5 -30 11 0 31 14 45 30 38 46 114 41 78 -5 -26 -33 -25 -33 12 -3 62 50 117
65 103 28 -12 -32 17 -42 36 -12 19 31 95 42 84 12 -8 -21 -1 -21 42 1 63 33
81 23 43 -23 -19 -24 -8 -21 43 10 81 49 108 53 92 14 -9 -24 -3 -24 42 -1 64
33 81 23 43 -26 -26 -33 -25 -33 12 -3 80 65 162 62 105 -3 -14 -15 -1 -7 29
18 51 45 111 44 83 -2 -7 -12 8 -7 34 12 60 41 87 42 72 3 -10 -25 -5 -27 26
-10 49 26 87 26 71 0 -7 -11 -3 -20 8 -20 11 0 25 8 31 18 19 31 89 40 77 10
-8 -22 5 -22 66 4 70 29 74 29 50 0 -29 -35 -3 -45 30 -12 40 40 116 44 85 5
-25 -32 -23 -31 27 0 72 46 110 46 73 0 -26 -33 -24 -33 27 0 64 41 125 47
104 10 -11 -20 -8 -20 13 0 15 14 45 24 68 23 23 0 30 -6 16 -11 -14 -6 -25
-20 -25 -32 0 -12 16 -6 37 12 39 36 134 46 113 13 -7 -12 -23 -15 -34 -7 -14
8 -16 4 -8 -10 11 -17 26 -15 58 7 63 44 107 41 72 -5 -26 -33 -25 -33 14 0
53 45 96 46 80 2 -11 -28 -8 -29 19 -6 77 64 134 41 74 -29 -22 -26 -11 -21
30 12 47 39 87 53 145 52 93 -1 95 -6 35 -74 -31 -35 -22 -31 31 14 84 71 160
91 112 29 -26 -33 -25 -33 14 0 64 55 121 48 69 -9 -22 -23 -37 -47 -32 -52 8
-7 31 9 100 71 60 54 102 29 49 -29 l-48 -54 67 54 c73 60 147 77 103 24 -32
-38 -2 -38 49 1 57 43 105 40 68 -5 -25 -32 -24 -32 22 0 64 44 117 47 81 5
-20 -25 -14 -25 39 2 78 39 100 22 49 -38 l-38 -45 51 45 c56 49 132 63 106
20 -12 -20 -8 -20 16 0 16 13 63 23 103 21 39 -1 88 10 106 26 32 26 33 24 10
-18 -25 -47 -25 -47 27 -13 47 31 61 26 52 -19 -2 -10 9 -10 23 2 49 39 120
47 107 12 -9 -23 -5 -26 14 -12 55 43 100 49 86 11 -11 -28 -8 -30 12 -10 30
30 105 34 87 5 -15 -25 -6 -25 57 -1 31 12 53 12 57 0 3 -10 30 -6 60 9 46 24
52 24 43 0 -13 -32 24 -39 43 -8 8 13 25 13 47 2 21 -11 47 -11 67 0 21 12 38
11 45 -1 8 -12 32 -11 65 5 39 17 55 18 60 1 9 -26 86 -12 86 17 0 10 9 13 20
6 12 -7 15 -21 9 -32 -7 -10 18 -2 55 18 36 21 81 36 100 33 35 -5 94 46 93
81 -1 29 123 94 156 82 16 -6 27 -40 27 -83 0 -49 -7 -67 -23 -57 -17 10 -19
0 -8 -34 36 -112 37 -198 2 -198 -20 0 -28 9 -19 23 8 14 5 18 -7 10 -54 -33
-34 -336 32 -493 20 -50 20 -50 22 13 1 45 10 62 34 60 18 -2 37 11 41 27 8
27 6 27 -14 0 -19 -25 -22 -25 -15 -1 18 66 55 42 55 -36 0 -79 67 -164 128
-162 12 0 4 13 -18 29 -83 60 -90 73 -90 181 0 60 -7 109 -16 109 -21 0 -89
295 -74 320 20 32 45 23 56 -22 15 -56 82 -42 91 19 4 33 -6 49 -35 57 -35 9
-42 26 -42 108 l0 98 75 3 75 3 -66 9 c-95 11 -129 -25 -121 -129 5 -55 -2
-89 -18 -95 -18 -7 -25 23 -25 116 0 129 -21 173 -84 173 -44 0 -48 51 -4 68
17 7 94 12 170 12 79 0 138 9 138 20 0 11 -22 20 -50 20 -51 0 -67 27 -30 50
11 7 20 30 20 51 0 22 10 39 21 39 12 0 16 9 8 21 -8 14 -22 13 -42 -3 -22
-18 -34 -19 -52 -1 -42 42 -55 24 -55 -77 0 -101 -27 -133 -50 -60 -8 25 -30
40 -59 40 -26 0 -51 11 -56 25 -7 17 11 25 53 25 55 0 62 6 58 54 -2 37 5 51
23 44 66 -26 172 47 148 101 -28 61 -46 63 -140 14 -116 -59 -162 -6 -113 131
24 67 236 108 236 45 0 -12 9 -16 20 -9 30 19 4 50 -41 50 -28 0 -39 14 -39
50 0 44 -9 50 -70 50 -59 0 -70 -7 -71 -45 0 -25 -13 -62 -30 -84 -27 -37 -29
-35 -29 24 0 34 9 68 20 75 11 7 20 61 20 121 0 122 38 152 43 34 l3 -75 9 68
c10 82 -20 120 -65 82 -34 -28 -62 -16 -41 19 8 12 85 21 184 21 154 0 167 3
138 31 -17 18 -31 58 -31 90 0 33 -9 59 -20 59 -11 0 -20 -19 -20 -41 0 -23
-9 -59 -21 -80 -22 -42 -59 -53 -59 -18 0 12 9 16 19 9 12 -7 19 18 17 59 -3
74 -36 102 -36 30 0 -23 -9 -59 -21 -80 -22 -42 -59 -53 -59 -18 0 12 9 16 19
9 12 -7 19 18 17 59 -3 95 -28 90 -44 -9 -18 -115 -72 -110 -72 7 0 89 26 255
51 318 9 24 4 35 -19 35 -18 0 -32 14 -32 30 0 24 22 30 100 27 l100 -3 0 -77
c0 -84 54 -157 115 -156 30 0 30 3 -5 22 -68 37 -90 81 -90 177 0 51 -9 101
-20 112 -46 46 -84 329 -45 343 15 5 25 -9 25 -35 0 -33 10 -41 45 -36 62 8
75 95 17 110 -84 22 -59 186 28 186 39 0 70 9 70 20 0 11 -31 20 -69 20 -83 0
-115 -46 -107 -153 4 -43 -4 -76 -18 -81 -17 -6 -26 32 -30 128 -6 134 -7 136
-66 146 -136 24 -68 70 120 80 127 8 157 14 100 20 -81 10 -138 100 -63 100
19 0 26 -13 19 -40 -6 -23 -1 -40 13 -40 13 0 18 8 12 19 -6 10 -3 24 9 31 11
7 20 35 20 62 0 33 8 45 23 36 15 -9 18 -5 8 10 -8 14 -29 19 -46 13 -16 -6
-43 -1 -58 11 -42 36 -127 40 -127 6 0 -25 -24 -37 -65 -30 -22 3 -18 -34 5
-48 28 -17 100 26 100 61 0 16 9 29 20 29 11 0 20 -49 20 -110 0 -81 -7 -110
-28 -110 -15 0 -26 15 -25 33 2 18 -10 37 -27 41 -27 8 -27 7 0 -12 37 -26 9
-56 -60 -65 -82 -11 -79 -91 4 -112 61 -16 67 -24 72 -106 l7 -89 -57 53 c-31
28 -75 62 -98 74 -31 15 -41 37 -37 76 10 91 -29 146 -61 86 -14 -26 -21 -59
-16 -73 17 -43 -31 -29 -55 16 -21 39 -24 40 -61 6 -21 -19 -44 -29 -51 -22
-20 20 30 69 84 82 37 10 49 26 49 66 0 29 5 47 12 41 6 -6 41 1 78 16 57 24
68 24 77 -2 7 -16 23 -29 37 -29 20 1 19 5 -2 18 -37 24 -13 116 33 129 19 6
8 9 -25 7 -43 -3 -59 -13 -55 -37 7 -42 -112 -89 -144 -56 -15 16 -7 33 26 60
55 45 30 53 -28 10 -54 -41 -152 -41 -136 -1 9 23 -4 30 -52 30 -37 0 -58 -8
-51 -20 7 -11 -7 -20 -30 -20 -23 0 -37 9 -30 20 7 12 -13 20 -49 20 -57 0
-61 -5 -61 -76 0 -98 28 -124 134 -124 74 0 87 -6 98 -50 16 -65 -3 -112 -40
-98 -16 6 -25 24 -19 40 8 20 2 25 -21 16 -17 -7 -32 -2 -32 10 0 12 10 22 21
22 12 0 15 10 7 23 -9 14 -23 6 -39 -25 -14 -26 -21 -54 -16 -63 5 -8 -64 -15
-153 -15 -158 0 -199 38 -69 63 24 5 39 24 39 51 0 23 8 50 18 59 11 10 12 6
2 -11 -11 -19 -9 -24 7 -14 33 21 28 52 -8 52 -16 0 -39 -20 -50 -45 -19 -44
-20 -44 -11 5 5 28 2 82 -7 120 -15 61 -17 54 -19 -62 l-2 -132 -80 0 -80 0
-2 132 c-2 116 -4 123 -19 62 -9 -38 -12 -92 -6 -120 7 -35 5 -42 -9 -23 -15
21 -21 20 -31 -7 -16 -42 0 -70 40 -70 16 0 43 -13 60 -30 27 -27 17 -30 -86
-30 -89 0 -110 5 -91 24 13 13 24 44 24 69 0 24 9 50 20 57 11 7 19 55 17 106
l-3 94 -12 -100 c-10 -80 -16 -91 -28 -56 -18 49 -127 113 -145 84 -19 -31
-127 -20 -164 17 -33 33 -37 33 -72 -2 -20 -20 -50 -31 -66 -25 -52 20 -104
-24 -111 -93 -9 -97 -96 -108 -97 -11 0 36 -14 93 -30 126 -18 39 -25 44 -17
15 6 -26 1 -45 -11 -45 -11 0 -22 20 -23 45 -2 43 -3 43 -18 -5 -28 -87 -25
-109 11 -79 27 22 30 19 21 -28 -10 -58 20 -74 34 -18 5 19 10 6 12 -30 4
-113 129 -83 145 35 6 40 20 51 71 56 34 4 74 20 87 36 22 25 29 25 57 0 18
-16 81 -32 142 -35 116 -5 160 -24 160 -69 0 -38 -39 -35 -88 7 -42 35 -42 35
-4 -10 21 -25 50 -45 65 -45 37 0 34 -49 -5 -81 -26 -22 -34 -22 -48 0 -9 15
-30 21 -48 15 -18 -7 -33 -2 -34 12 0 13 -10 -1 -21 -31 -19 -50 -57 -77 -57
-39 0 8 -35 12 -79 8 -71 -7 -77 -4 -67 34 8 31 -2 46 -43 62 -71 27 -71 26
-71 -21 0 -33 -9 -39 -40 -29 -22 7 -40 4 -40 -6 0 -10 -43 -17 -95 -16 -52 1
-115 -5 -140 -14 -40 -15 -45 -10 -45 45 0 64 -33 83 -53 30 -10 -26 -15 -26
-36 4 -33 43 -86 23 -111 -42 -10 -28 -24 -51 -31 -51 -6 0 -6 9 1 20 20 32
-22 23 -50 -10 -33 -40 -80 -38 -80 2 0 26 -6 28 -28 9 -23 -18 -31 -16 -38
13 -6 23 -10 17 -12 -19 -1 -30 -10 -55 -20 -55 -10 0 -33 -5 -50 -12 -26 -10
-32 2 -32 61 0 100 -64 93 -82 -9 -13 -69 -13 -69 -17 -10 -3 57 -5 57 -22 15
-25 -62 -39 -56 -39 17 0 51 6 60 35 49 23 -9 28 -7 15 7 -11 11 -69 22 -130
26 -105 6 -193 96 -93 96 19 0 26 -13 19 -40 -6 -22 -1 -40 12 -40 12 0 21 7
19 15 -2 8 2 29 8 45 32 83 32 123 1 111 -17 -6 -44 -1 -59 11 -42 36 -127 40
-127 6 0 -15 -10 -28 -21 -28 -12 0 -15 -11 -6 -25 8 -14 -1 -12 -22 5 -33 27
-36 27 -28 0 15 -46 84 -36 107 15 32 74 50 51 50 -65 0 -83 -7 -110 -29 -110
-17 0 -25 12 -19 28 6 15 2 33 -8 40 -11 6 -18 -4 -17 -23 2 -23 -16 -37 -57
-45 -50 -9 -60 -20 -59 -66 0 -40 -8 -53 -30 -48 -17 3 -29 17 -26 31 3 14 -5
44 -17 67 l-23 43 -26 -48 c-14 -27 -21 -55 -16 -64 5 -8 -4 -15 -20 -15 -16
0 -34 15 -41 33 -12 30 -16 29 -53 -3 -21 -20 -45 -31 -52 -24 -20 20 30 69
84 82 37 10 49 26 49 66 0 29 6 47 13 40 6 -7 39 2 73 19 55 28 62 28 78 -1
10 -18 29 -32 42 -32 16 1 15 6 -4 18 -37 24 -13 116 33 129 19 6 8 9 -25 7
-43 -3 -59 -13 -55 -37 7 -42 -112 -89 -144 -56 -15 16 -7 33 26 60 55 45 30
53 -28 10 -52 -39 -129 -40 -129 -1 0 20 -20 30 -61 30 -36 0 -56 -8 -49 -20
7 -11 -7 -20 -30 -20 -23 0 -37 9 -30 20 7 12 -13 20 -49 20 -58 0 -61 -4 -61
-78 0 -95 25 -117 140 -126 101 -7 160 -136 62 -136 -28 0 -37 9 -29 30 8 22
2 27 -21 18 -17 -7 -32 -2 -32 10 0 12 10 22 21 22 12 0 15 10 7 23 -9 14 -23
6 -39 -25 -14 -26 -21 -54 -16 -63 5 -8 -64 -15 -153 -15 -158 0 -199 38 -69
63 24 5 39 24 39 51 0 23 8 50 18 59 11 10 12 6 2 -11 -11 -19 -9 -24 7 -14
33 21 28 52 -8 52 -16 0 -39 -20 -50 -45 -19 -44 -20 -44 -11 5 5 28 2 82 -7
120 -15 62 -17 54 -19 -61 l-2 -131 -80 0 -80 -1 -2 132 c-2 115 -4 122 -19
61 -9 -38 -12 -92 -6 -120 7 -35 5 -42 -9 -23 -15 21 -21 20 -31 -7 -16 -42 0
-70 40 -70 16 0 43 -13 60 -30 27 -27 17 -30 -86 -30 -89 0 -110 5 -91 24 13
13 24 44 24 69 0 24 9 50 20 57 11 7 19 55 17 106 l-3 94 -12 -90 c-8 -58 -17
-78 -26 -57 -17 41 -132 100 -147 75 -20 -32 -127 -20 -166 19 -33 33 -39 33
-56 6 -11 -16 -49 -32 -85 -35 -81 -5 -97 -21 -105 -98 -11 -93 -97 -99 -98
-6 0 36 -14 93 -30 126 -18 39 -25 44 -17 15 6 -25 2 -45 -9 -45 -11 0 -24 20
-29 45 -5 25 -10 32 -12 15z m1438 -20 c-20 -13 -22 -19 -5 -20 14 0 25 -18
25 -40 0 -22 -9 -40 -19 -40 -11 0 -14 16 -8 35 10 28 6 27 -20 -5 -32 -40
-32 -40 -34 0 -1 22 -7 29 -12 15 -15 -36 -107 -32 -107 5 0 21 21 30 70 30
39 0 70 9 70 20 0 11 16 20 35 20 30 -1 31 -3 5 -20z m3000 0 c-20 -13 -22
-19 -5 -20 14 0 25 -18 25 -40 0 -22 -9 -40 -19 -40 -11 0 -14 16 -8 35 10 28
6 27 -20 -5 -32 -40 -32 -40 -34 0 -1 22 -7 29 -12 15 -15 -36 -107 -32 -107
5 0 21 21 30 70 30 39 0 70 9 70 20 0 11 16 20 35 20 30 -1 31 -3 5 -20z
m-2852 -57 c6 -9 3 -42 -5 -74 -19 -72 -105 -102 -139 -48 -16 25 -54 39 -118
44 -94 8 -94 8 21 11 98 3 118 10 127 44 11 40 93 57 114 23z m3000 0 c6 -9 3
-42 -5 -74 -19 -72 -105 -102 -139 -48 -16 25 -54 39 -118 44 -94 8 -94 8 21
11 98 3 118 10 127 44 11 40 93 57 114 23z m-3872 -27 c32 -32 30 -76 -4 -76
-36 0 -79 53 -63 79 17 27 37 27 67 -3z m-377 -153 c-1 -19 -51 -83 -65 -83
-6 0 -11 26 -10 57 2 46 10 56 39 48 20 -5 37 -15 36 -22z m2458 -5 c14 -23
21 -47 14 -53 -6 -7 -11 -2 -11 9 0 11 -22 16 -50 11 -35 -7 -50 -1 -50 19 0
67 59 75 97 14z m542 5 c-1 -19 -51 -83 -65 -83 -6 0 -11 26 -10 57 2 46 10
56 39 48 20 -5 37 -15 36 -22z m-1179 -11 c0 -75 -24 -92 -131 -92 -59 0 -112
9 -119 20 -7 11 -34 20 -60 20 -52 0 -80 28 -60 60 21 34 370 26 370 -8z
m-334 -336 c55 -122 68 -167 49 -179 -45 -28 19 -65 104 -60 173 10 119 -225
-58 -248 -50 -6 -104 -13 -121 -15 -62 -9 -44 -88 40 -167 l81 -78 -23 -103
c-39 -168 17 -206 171 -115 l87 50 112 -54 c152 -75 190 -46 152 114 l-25 105
82 69 c118 97 105 185 -26 185 -108 1 -152 23 -189 98 -55 107 -27 167 73 159
71 -7 75 -4 77 53 1 33 26 110 55 170 29 61 53 126 53 145 0 45 2092 55 2136
11 18 -18 24 -290 24 -1100 l0 -1076 -2540 0 -2540 0 0 1076 c0 810 6 1082 24
1100 18 18 284 24 1076 24 l1051 0 75 -164z m654 157 c0 -3 -36 -35 -80 -71
-45 -35 -78 -55 -75 -44 3 11 -29 38 -70 59 -91 47 -91 44 -14 -126 34 -75 57
-140 52 -145 -23 -23 -58 25 -118 159 l-63 141 -55 -66 -55 -66 -62 63 c-35
35 -71 63 -82 63 -10 0 -18 9 -18 20 0 13 120 20 320 20 176 0 320 -3 320 -7z
m2391 -94 c33 -65 38 -171 9 -189 -11 -7 -20 -48 -20 -91 0 -44 -8 -79 -19
-79 -10 0 -22 -16 -27 -35 -5 -19 -11 60 -12 175 -1 116 -8 230 -15 255 -17
65 45 38 84 -36z m129 -459 c0 -11 -45 -20 -100 -20 -55 0 -100 9 -100 20 0
11 45 20 100 20 55 0 100 -9 100 -20z m-2810 -190 c0 -69 -65 -94 -108 -42
-41 50 -8 115 55 108 44 -5 53 -16 53 -66z m-2809 -15 c-27 -14 -56 -48 -63
-75 l-14 -50 -2 51 c-2 61 31 99 87 99 37 -1 36 -3 -8 -25z m2952 -85 c-49
-49 -107 8 -69 69 25 40 26 40 64 2 35 -35 36 -40 5 -71z m-2897 -5 c6 -58 1
-65 -45 -65 -43 0 -51 9 -51 57 0 108 86 115 96 8z m2800 -80 c7 -72 -30 -91
-40 -20 -5 35 -19 45 -66 45 -47 0 -61 -10 -66 -45 -10 -65 -44 -56 -44 12 0
116 205 124 216 8z m-2776 -85 c0 -44 -9 -80 -20 -80 -11 0 -19 -29 -18 -65 0
-36 6 -54 11 -40 23 57 66 26 54 -40 -27 -141 -98 -109 -126 57 -11 66 -17 79
-19 40 -1 -32 -8 -52 -16 -45 -8 8 -12 46 -9 84 4 67 -23 95 -44 44 -7 -17
-10 -15 -11 6 -4 62 58 119 129 119 67 0 69 -2 69 -80z m5590 -690 c0 -43
-113 -91 -126 -53 -4 13 -16 18 -26 12 -10 -6 -18 -2 -18 10 0 23 118 80 150
73 11 -3 20 -22 20 -42z m-5582 -69 c33 -27 17 -121 -20 -121 -16 0 -28 18
-28 40 0 27 -13 40 -40 40 -62 0 -57 115 5 124 30 4 47 -5 51 -28 4 -18 18
-43 32 -55z m5403 -2 c19 -37 22 -59 8 -59 -12 0 -15 -10 -8 -22 9 -15 -1 -14
-30 2 -41 22 -42 25 -10 49 28 19 30 28 9 41 -17 11 -21 8 -12 -7 9 -15 3 -18
-17 -10 -23 8 -26 19 -12 36 12 14 14 32 6 41 -8 9 -4 10 10 2 14 -8 39 -41
56 -73z m-5471 -110 c0 -16 14 -29 30 -29 75 0 24 -52 -55 -56 -67 -3 -78 0
-50 17 19 12 35 44 35 71 0 29 9 45 20 38 11 -7 20 -25 20 -41z m5630 -79 c0
-27 -11 -50 -25 -50 -14 0 -25 23 -25 50 0 28 11 50 25 50 14 0 25 -22 25 -50z
m-135 -25 c5 -16 -11 -25 -43 -25 -34 0 -52 11 -52 31 0 38 82 32 95 -6z
m-5601 -250 c-4 -36 -8 -11 -8 55 0 66 4 95 8 65 5 -30 5 -84 0 -120z m5706
-575 c0 -25 -81 -25 -120 0 -22 14 -11 19 45 20 41 0 75 -9 75 -20z"/>
<path d="M2065 4246 c-33 -6 -45 -23 -45 -60 0 -44 7 -49 50 -38 l50 13 0
-153 0 -152 -50 12 c-43 11 -50 6 -50 -38 0 -50 2 -50 171 -50 167 0 172 1
165 45 -5 36 -17 44 -61 39 l-55 -7 0 202 0 201 -65 -3 c-36 -1 -85 -6 -110
-11z"/>
<path d="M2810 4236 c-91 -52 -127 -177 -91 -311 54 -203 296 -211 362 -11 73
219 -98 421 -271 322z m159 -141 c28 -114 -6 -225 -68 -225 -58 0 -89 82 -70
190 25 140 106 161 138 35z"/>
<path d="M3238 4202 c-112 -113 -69 -375 69 -421 133 -44 235 40 249 206 19
236 -169 363 -318 215z m181 -61 c52 -97 20 -281 -49 -281 -56 0 -70 33 -70
168 0 139 70 206 119 113z"/>
<path d="M3710 4212 c-168 -168 -28 -501 181 -432 215 71 163 480 -60 480 -50
0 -88 -15 -121 -48z m166 -56 c25 -25 33 -209 12 -264 -37 -97 -128 -6 -128
128 0 134 54 198 116 136z"/>
<path d="M2475 3825 c-6 -41 -17 -91 -25 -110 -27 -67 64 -40 108 32 62 99 56
153 -15 153 -51 0 -59 -8 -68 -75z"/>
<path d="M2109 3599 c-16 -26 27 -79 63 -79 51 0 29 -37 -27 -45 -48 -6 -50
-9 -17 -24 39 -18 94 5 107 45 5 13 -15 34 -43 47 -61 28 -70 66 -12 51 22 -6
40 -2 40 8 0 25 -95 23 -111 -3z"/>
<path d="M2280 3541 c0 -86 55 -126 111 -80 33 27 40 159 9 159 -11 0 -20 -32
-20 -71 0 -58 -7 -71 -35 -65 -25 5 -35 26 -35 72 0 35 -6 64 -15 64 -8 0 -15
-35 -15 -79z"/>
<path d="M2464 3535 c6 -91 41 -116 99 -71 59 46 26 156 -46 156 -57 0 -59 -3
-53 -85z"/>
<path d="M2640 3578 c0 -25 16 -46 40 -52 22 -6 40 -19 40 -28 0 -10 -18 -18
-40 -18 -22 0 -40 -9 -40 -20 0 -22 41 -26 88 -8 48 18 38 66 -18 92 -62 28
-64 51 -5 62 39 7 37 9 -10 11 -43 2 -55 -6 -55 -39z"/>
<path d="M2808 3591 c-33 -84 33 -172 104 -141 34 15 33 18 -12 26 -63 10 -83
41 -57 90 13 24 34 34 59 28 21 -6 38 -2 38 8 0 30 -120 20 -132 -11z"/>
<path d="M2980 3541 c0 -44 9 -81 20 -81 11 0 20 14 20 30 0 43 30 37 69 -15
29 -40 32 -40 20 -5 -7 22 -15 63 -16 90 -6 99 -113 81 -113 -19z"/>
<path d="M3160 3540 c0 -44 9 -80 20 -80 11 0 20 36 20 80 0 44 -9 80 -20 80
-11 0 -20 -36 -20 -80z"/>
<path d="M3260 3531 c0 -73 7 -91 35 -91 99 1 118 165 19 176 -52 6 -54 3 -54
-85z"/>
<path d="M3424 3535 c6 -80 116 -152 116 -76 0 11 -18 21 -40 21 -55 0 -51 55
5 66 l45 9 -45 2 c-25 2 -45 11 -45 22 0 10 20 22 45 27 32 6 26 9 -21 11 -66
3 -66 3 -60 -82z"/>
<path d="M3603 3525 c1 -52 6 -75 11 -50 11 57 35 57 74 1 29 -41 30 -40 23
35 -5 44 -9 86 -10 94 0 8 -23 15 -51 15 -47 0 -50 -6 -47 -95z"/>
<path d="M3769 3599 c-16 -26 27 -79 63 -79 51 0 29 -37 -27 -45 -48 -6 -50
-9 -17 -24 39 -18 94 5 107 45 5 13 -15 34 -43 47 -61 28 -70 66 -12 51 22 -6
40 -2 40 8 0 25 -95 23 -111 -3z"/>
<path d="M3130 5986 c-79 -11 -144 -95 -108 -138 21 -25 20 -34 -3 -49 -16
-10 -19 -19 -7 -19 48 0 98 80 73 119 -27 44 -14 61 47 61 25 0 51 9 58 20 7
11 10 19 6 17 -3 -2 -33 -7 -66 -11z"/>
<path d="M3260 5981 c0 -11 -13 -21 -29 -21 -16 0 -31 -24 -35 -55 -4 -38 -17
-54 -41 -52 -19 1 -35 -5 -35 -14 0 -57 212 -74 230 -19 15 48 -2 80 -44 80
-21 0 -27 13 -20 40 6 22 2 45 -8 51 -10 6 -18 2 -18 -10z m0 -83 c0 -29 9
-39 30 -31 20 8 30 0 30 -23 0 -24 -18 -35 -62 -36 -53 -2 -60 3 -50 40 6 23
12 53 12 67 0 14 9 25 20 25 11 0 20 -19 20 -42z"/>
<path d="M3707 5985 c6 -10 -26 -20 -71 -22 -125 -5 -118 -23 9 -23 71 0 115
-9 122 -25 7 -17 10 -15 11 5 1 17 -17 42 -40 57 -23 14 -37 18 -31 8z"/>
<path d="M4776 5976 c13 -13 24 -58 24 -100 0 -42 10 -76 22 -76 12 0 19 29
15 69 -3 38 1 75 9 83 8 8 14 24 14 36 0 12 -10 9 -22 -8 -16 -23 -24 -24 -31
-5 -6 14 -20 25 -33 25 -15 0 -15 -7 2 -24z"/>
<path d="M1800 5860 c0 -33 9 -60 20 -60 11 0 20 27 20 60 0 33 -9 60 -20 60
-11 0 -20 -27 -20 -60z"/>
<path d="M3464 5876 c-13 -13 -24 -49 -24 -79 0 -40 -11 -56 -45 -63 -40 -8
-39 -9 8 -11 45 -3 54 7 66 67 14 78 45 88 122 38 45 -30 49 -30 49 0 0 31 4
31 50 0 46 -30 50 -30 50 0 0 47 77 5 98 -53 15 -41 16 -40 26 11 7 37 2 54
-17 54 -15 0 -47 11 -70 25 -34 20 -44 20 -51 0 -7 -19 -19 -19 -52 -2 -31 17
-44 17 -50 0 -5 -16 -24 -14 -65 7 -69 36 -65 36 -95 6z"/>
<path d="M1140 5830 c0 -35 11 -50 37 -50 29 0 35 11 28 50 -5 28 -22 50 -37
50 -17 0 -28 -21 -28 -50z"/>
<path d="M4140 5830 c0 -35 11 -50 37 -50 29 0 35 11 28 50 -5 28 -22 50 -37
50 -17 0 -28 -21 -28 -50z"/>
<path d="M4320 5832 c0 -35 13 -50 52 -57 36 -7 45 -4 30 11 -12 12 -22 38
-22 58 0 20 -13 36 -30 36 -18 0 -30 -19 -30 -48z"/>
<path d="M1310 5740 c-18 -28 -1 -46 52 -54 30 -5 39 3 34 29 -8 40 -66 57
-86 25z"/>
<path d="M4310 5740 c-18 -28 -1 -46 52 -54 30 -5 39 3 34 29 -8 40 -66 57
-86 25z"/>
<path d="M133 5727 c-7 -8 -13 -74 -13 -148 0 -149 8 -158 125 -144 l75 9 -4
143 -4 143 -7 -135 c-6 -128 -9 -135 -56 -135 -47 0 -49 5 -49 140 0 134 -21
173 -67 127z"/>
<path d="M5933 5103 c-58 -63 1 -255 60 -196 8 7 1 13 -14 13 -21 0 -22 5 -3
24 13 13 24 51 24 85 -1 42 -6 53 -18 34 -14 -23 -19 -23 -26 0 -5 15 5 38 22
51 18 14 22 25 10 25 -12 1 -37 -15 -55 -36z m26 -100 c-11 -3 -19 -15 -19
-26 0 -11 10 -13 23 -5 15 9 18 5 9 -9 -24 -39 -52 -5 -52 62 0 59 2 60 29 24
15 -22 20 -42 10 -46z"/>
<path d="M240 5000 c0 -47 9 -60 40 -60 31 0 40 13 40 60 0 47 -9 60 -40 60
-31 0 -40 -13 -40 -60z"/>
<path d="M5831 4375 c-17 -53 -22 -172 -7 -162 9 5 16 44 16 87 0 77 1 78 85
85 l85 8 -86 4 c-53 2 -88 -6 -93 -22z"/>
<path d="M40 4270 c0 -27 9 -50 19 -50 11 0 15 13 9 28 -6 15 -1 34 11 41 14
9 21 -28 21 -110 0 -101 -5 -121 -30 -112 -17 7 -30 3 -30 -9 0 -36 229 -13
236 24 9 47 -48 62 -80 22 -23 -30 -22 -31 6 -9 17 13 38 19 45 11 29 -29 10
-46 -52 -46 l-65 0 7 130 c6 128 6 130 -45 130 -42 0 -52 -10 -52 -50z"/>
<path d="M5760 3991 c0 -44 67 -71 164 -68 73 3 76 5 21 11 -36 5 -65 17 -65
27 0 11 29 20 65 21 62 2 62 3 15 18 -89 28 -200 23 -200 -9z"/>
<path d="M73 3297 c1 -110 8 -205 14 -211 7 -6 -10 -38 -38 -70 -56 -67 -66
-156 -18 -156 28 0 28 -3 2 -30 -16 -16 -27 -45 -23 -65 4 -19 8 -42 8 -50 1
-8 12 -15 23 -15 12 0 15 10 7 23 -9 15 -5 18 9 9 13 -8 19 -22 13 -32 -6 -9
1 -21 15 -27 14 -6 3 -9 -25 -7 -66 5 -90 -376 -27 -428 31 -25 31 -24 10 16
-46 86 -30 186 30 186 80 0 112 -56 68 -120 -19 -27 -40 -66 -47 -85 -7 -19
-31 -35 -53 -35 -23 0 -41 -10 -41 -21 0 -47 169 -11 176 37 8 52 -29 60 -42
9 -8 -28 -10 -27 -12 7 -1 23 18 64 43 90 29 32 43 68 39 104 -5 38 4 59 30
69 41 17 39 12 82 249 35 199 19 275 -61 278 -43 1 -42 3 9 25 l54 24 -61 27
c-44 20 -66 21 -83 4 -59 -59 -74 -24 -74 177 0 109 -7 203 -15 208 -8 5 -14
-80 -12 -190z m107 -256 c23 -15 28 -52 23 -165 -4 -80 -2 -141 4 -135 6 5 13
55 15 110 7 148 58 228 58 90 0 -32 9 -64 20 -71 33 -20 23 -45 -22 -56 -40
-11 -42 -20 -29 -123 14 -108 -16 -164 -35 -66 -8 40 -9 40 -11 -8 -2 -28 -17
-63 -33 -77 -17 -14 -30 -37 -30 -52 0 -18 -22 -28 -60 -28 -57 0 -60 4 -60
80 0 51 9 80 25 80 17 1 15 7 -5 22 -24 16 -21 18 13 9 142 -40 128 223 -14
273 -22 8 -15 25 30 73 64 69 68 71 111 44z m-80 -181 c41 -41 50 -91 28 -149
-11 -28 -18 -26 -45 13 -38 54 -42 77 -18 109 11 15 4 31 -19 45 -20 11 -25
21 -11 21 14 1 43 -17 65 -39z"/>
<path d="M1729 3039 c-80 -82 -110 -191 -61 -223 15 -10 14 -28 -6 -60 -28
-46 -27 -46 15 -8 40 35 43 35 56 2 15 -40 -163 -219 -197 -198 -12 8 -12 20
2 34 51 51 17 53 -43 3 -54 -45 -66 -49 -71 -22 -6 30 -11 29 -57 -1 -40 -26
-54 -27 -66 -7 -12 19 -26 20 -57 3 -60 -32 -68 -27 -42 21 23 43 22 43 -41
-2 -80 -57 -103 -38 -39 34 l48 55 -50 -43 c-49 -41 -127 -87 -148 -87 -6 0
-5 15 2 34 12 31 10 31 -35 0 -26 -19 -55 -34 -63 -34 -8 0 -9 15 -2 34 12 31
10 31 -35 0 -61 -43 -79 -43 -79 1 0 22 -6 27 -15 13 -20 -30 -105 -56 -105
-32 0 32 -136 -44 -147 -81 -9 -33 53 -35 1097 -35 l1105 0 34 52 c105 160
437 160 542 0 l34 -52 1107 0 1107 0 -22 48 c-13 29 -33 44 -49 38 -15 -5 -33
5 -40 22 -9 24 -20 27 -38 12 -25 -20 -140 -17 -162 5 -7 7 -34 4 -61 -6 -63
-24 -72 -24 -57 1 15 25 6 25 -58 1 -43 -17 -48 -14 -37 15 12 32 9 31 -40 -1
-66 -43 -75 -43 -75 -5 0 27 -6 27 -48 -1 -31 -20 -53 -24 -61 -11 -8 13 -30
14 -62 2 -32 -12 -49 -12 -49 1 0 11 -22 14 -50 7 -33 -8 -50 -4 -50 12 0 17
-14 15 -49 -7 -32 -21 -70 -28 -110 -20 -71 14 -73 20 -26 75 34 41 33 41 -15
-1 -72 -61 -140 -93 -140 -67 0 15 -13 14 -43 -1 -32 -18 -46 -17 -57 1 -11
18 -25 19 -56 2 -28 -15 -46 -15 -54 -2 -8 13 -25 13 -51 -1 -31 -16 -39 -14
-39 10 0 39 -10 39 -71 -2 -65 -42 -86 -20 -37 38 l38 45 -51 -45 c-57 -50
-92 -57 -103 -22 -6 16 -20 15 -51 -5 -53 -33 -80 -11 -43 35 17 21 2 15 -37
-13 -81 -59 -108 -38 -43 35 47 54 47 54 -16 -3 -36 -32 -60 -66 -54 -75 5 -9
-2 -12 -17 -6 -14 5 -45 -8 -68 -29 -42 -39 -43 -39 -88 9 -119 127 -355 142
-508 32 -91 -65 -131 -78 -131 -42 0 12 -9 16 -20 9 -11 -7 -25 1 -31 17 -12
29 -102 31 -174 2 -27 -10 -33 -6 -23 19 16 41 0 40 -63 -1 -80 -52 -76 -20
10 77 66 75 205 152 170 94 -12 -19 112 -9 191 14 47 14 48 13 20 -24 -28 -36
-27 -36 10 -6 52 42 110 62 110 38 0 -21 184 -12 221 11 16 10 20 7 11 -8 -18
-29 18 -30 69 -2 28 15 39 14 39 -3 0 -16 9 -16 31 3 23 19 36 20 54 2 13 -13
40 -23 61 -23 27 0 35 -10 26 -31 -9 -24 2 -22 47 10 32 23 63 33 70 23 7 -12
36 -12 73 -1 53 15 58 13 37 -12 -33 -40 13 -40 54 1 43 43 80 37 40 -7 -59
-65 -35 -67 42 -4 92 76 127 25 36 -53 -29 -25 -46 -46 -37 -46 9 0 44 26 78
58 57 54 245 86 215 37 -5 -8 20 -9 55 -2 52 11 61 8 47 -15 -12 -19 -1 -17
36 7 30 19 65 35 79 35 19 -1 18 -6 -3 -19 -17 -10 -24 -25 -17 -32 14 -14
196 155 196 182 0 8 -18 -1 -40 -21 -61 -55 -65 -27 -8 58 48 69 48 74 10 53
-34 -18 -42 -17 -42 8 0 18 -17 31 -39 31 -26 0 -36 10 -29 28 8 22 -19 27
-141 23 -91 -2 -151 5 -151 17 0 11 -10 10 -24 -4 -29 -29 -104 -32 -86 -4 7
11 -1 14 -19 8 -17 -7 -31 -25 -31 -41 0 -16 -8 -24 -19 -18 -10 6 -24 3 -31
-9 -19 -30 -50 -24 -50 11 0 24 -8 26 -40 9 -32 -17 -40 -15 -40 8 0 21 -15
27 -52 20 -45 -8 -50 -4 -39 36 11 40 10 41 -9 11 -13 -21 -45 -35 -76 -34
-30 2 -76 -4 -102 -12 -34 -11 -44 -9 -34 8 8 13 -18 4 -57 -19 -54 -32 -71
-35 -71 -14 0 21 -34 27 -145 25 -80 -1 -150 5 -156 14 -6 9 -35 3 -64 -12
-40 -21 -72 -23 -125 -8 -39 10 -89 14 -111 7 -23 -8 -39 -3 -39 10 0 12 -11
16 -24 7 -66 -41 -296 -23 -272 21 22 42 21 42 -21 4 -46 -41 -233 -65 -209
-26 8 13 0 16 -21 7 -18 -7 -46 -18 -63 -25 -17 -7 -30 -2 -30 11 0 14 -25 6
-60 -19 -61 -44 -76 -28 -39 41 30 56 17 49 -72 -42z m88 -130 c33 -72 29 -99
-9 -68 -26 22 -34 22 -48 -2 -30 -47 -41 -9 -18 58 27 76 44 79 75 12z m143
31 c0 -11 -11 -18 -24 -15 -13 3 -27 -11 -31 -30 -5 -23 4 -35 28 -35 26 0 29
-6 12 -23 -18 -18 -31 -17 -54 2 -32 27 -41 84 -18 108 21 20 87 15 87 -7z
m113 -9 c24 33 27 29 25 -42 -2 -44 -7 -63 -12 -44 -5 19 -21 35 -36 35 -15 0
-31 -16 -36 -35 -5 -19 -10 1 -11 45 -2 68 2 74 20 42 22 -38 23 -38 50 -1z
m107 -30 c0 -32 -9 -64 -20 -71 -12 -7 -20 16 -20 59 0 39 9 71 20 71 11 0 20
-26 20 -59z m95 45 c-19 -5 -35 -18 -35 -29 0 -10 8 -14 19 -8 10 6 24 3 31
-9 7 -11 -4 -21 -24 -22 -33 -2 -33 -3 -1 -12 48 -12 44 -46 -5 -46 -32 0 -40
13 -40 70 0 60 6 70 45 68 34 -2 36 -5 10 -12z m94 -31 l13 -45 19 48 c29 70
43 40 17 -35 -24 -70 -48 -81 -63 -28 -6 19 -17 51 -25 70 -8 19 -5 35 6 35
10 0 25 -20 33 -45z m166 31 c-19 -5 -35 -18 -35 -29 0 -10 8 -14 19 -8 10 6
24 3 31 -9 7 -11 -4 -21 -24 -22 -33 -2 -33 -3 -1 -12 51 -13 43 -50 -10 -42
-76 10 -77 137 -1 134 34 -2 42 -6 21 -12z m162 -44 c6 -47 -23 -81 -72 -82
-15 0 -25 27 -25 71 0 88 85 97 97 11z m164 23 c0 -33 1 -33 21 0 32 56 58 41
58 -35 0 -79 -8 -84 -56 -36 -32 31 -34 31 -41 -1 -11 -59 -37 -17 -27 46 9
65 44 85 45 26z m197 -28 c29 -82 28 -87 -8 -57 -24 20 -36 20 -60 0 -36 -30
-37 -25 -8 57 12 35 29 63 38 63 9 0 26 -28 38 -63z m62 41 c0 -16 10 -14 31
3 28 23 30 19 18 -33 -18 -76 -49 -109 -49 -53 0 23 -9 48 -20 55 -11 7 -20
21 -20 31 0 11 9 19 20 19 11 0 20 -10 20 -22z m246 -33 c10 -54 -16 -91 -56
-78 -25 8 -37 66 -22 104 18 49 67 32 78 -26z m121 40 c-13 -8 -27 -42 -32
-75 l-9 -60 -3 64 c-2 42 -15 66 -38 72 -19 5 -3 10 35 11 39 1 60 -4 47 -12z
m81 -10 c10 -20 14 -20 24 0 22 48 48 24 48 -45 0 -38 -9 -70 -20 -70 -11 0
-20 14 -20 30 0 17 -9 30 -20 30 -11 0 -20 -13 -20 -30 0 -16 -9 -30 -20 -30
-11 0 -20 32 -20 70 0 69 26 93 48 45z m323 4 c7 -11 2 -34 -12 -50 -17 -20
-17 -29 -1 -29 12 0 22 -9 22 -20 0 -11 -22 -20 -50 -20 -57 0 -64 23 -20 60
17 14 30 33 30 42 0 9 -13 12 -30 5 -16 -6 -30 -1 -30 11 0 28 73 29 91 1z
m126 -37 c3 -25 -3 -56 -15 -68 -34 -34 -90 31 -72 85 18 57 78 45 87 -17z
m119 -12 c-2 -54 -11 -70 -39 -70 -40 0 -50 30 -17 50 11 7 20 26 20 42 0 17
-9 25 -20 18 -11 -7 -20 -3 -20 9 0 11 18 21 39 21 33 0 39 -13 37 -70z m120
0 c-2 -54 -11 -70 -39 -70 -45 0 -48 26 -7 60 31 26 21 69 -11 49 -11 -6 -19
-2 -19 10 0 11 18 21 39 21 33 0 39 -13 37 -70z m-2396 -144 c0 -8 -25 -41
-55 -74 -45 -49 -40 -47 34 14 94 79 111 86 131 54 7 -11 1 -20 -12 -20 -14 0
-20 -5 -14 -10 5 -6 36 3 67 19 80 41 86 22 18 -53 -52 -57 -50 -56 26 10 153
134 175 86 25 -54 -88 -82 -167 -111 -127 -47 7 12 -8 7 -34 -12 -60 -42 -81
-42 -65 -1 11 29 7 29 -50 0 -38 -20 -63 -24 -68 -10 -5 14 -24 14 -63 -1 -69
-26 -64 -9 30 94 80 88 157 133 157 91z m375 -55 c-9 -47 -8 -47 37 -15 26 19
47 41 47 49 1 8 21 15 45 15 41 0 39 -5 -25 -72 -76 -79 -179 -141 -179 -109
0 12 9 21 20 21 11 0 20 9 20 20 0 12 -24 5 -53 -14 -130 -85 -125 -17 7 92
90 75 93 75 81 13z"/>
<path d="M2620 2902 c0 -25 13 -42 31 -42 19 0 29 14 25 33 -9 51 -56 57 -56
9z"/>
<path d="M5924 2856 c-13 -13 -24 -38 -24 -55 1 -21 6 -23 15 -8 16 25 51 -3
60 -49 6 -28 -38 -24 -60 6 -8 12 -15 7 -15 -11 0 -40 40 -79 79 -78 22 1 19
7 -9 19 -34 15 -35 17 -5 19 42 1 52 141 10 141 -17 1 -15 7 5 20 26 17 26 19
-1 20 -17 0 -42 -11 -55 -24z"/>
<path d="M2845 2521 c-189 -118 -194 -413 -8 -509 46 -24 56 -40 48 -81 -12
-65 61 -102 166 -82 68 13 73 18 64 73 -7 50 1 65 46 89 170 87 186 343 31
488 -74 69 -255 80 -347 22z m331 -105 c35 -35 29 -84 -17 -143 -23 -29 -32
-53 -20 -53 11 0 21 -13 21 -29 0 -18 -12 -25 -30 -18 -16 6 -66 -8 -110 -31
-83 -43 -209 -56 -229 -24 -6 10 6 14 26 9 43 -12 196 47 175 67 -21 22 -72
24 -72 4 0 -10 -13 -18 -30 -18 -22 0 -30 22 -30 80 0 89 10 96 64 47 34 -32
38 -31 63 2 19 26 44 34 90 27 52 -8 63 -2 63 30 0 34 -10 38 -85 29 -85 -10
-85 -10 -25 16 76 34 116 35 146 5z"/>
<path d="M3020 2260 c0 -45 21 -51 56 -16 35 35 29 56 -16 56 -27 0 -40 -13
-40 -40z"/>
<path d="M277 2413 c13 -15 16 -34 8 -43 -8 -9 0 -11 18 -5 32 12 77 -18 77
-51 0 -10 -14 -13 -32 -6 -26 10 -30 0 -22 -58 7 -51 2 -70 -18 -70 -17 0 -29
-23 -30 -55 l-3 -55 -15 60 -15 60 -5 -70 -5 -70 -15 70 -15 70 -5 -60 c-3
-37 -8 -46 -14 -25 -7 28 -28 34 -102 32 l-94 -4 80 -8 c105 -10 170 -88 130
-153 -23 -37 -23 -39 4 -17 16 13 36 19 43 11 24 -23 14 -46 -20 -46 -19 0
-28 -6 -20 -13 7 -8 36 -2 63 13 39 21 56 22 74 4 19 -19 16 -24 -10 -24 -43
0 -44 -37 -1 -54 29 -11 29 -15 -4 -39 -35 -26 -35 -28 1 -55 35 -25 30 -28
-54 -35 -51 -4 -88 0 -83 8 5 8 -38 14 -97 12 -72 -2 -85 -6 -41 -11 79 -10
85 -40 10 -52 -30 -5 -10 -6 45 -2 55 4 129 13 165 20 l65 13 -2 -88 c-2 -69
-5 -77 -16 -37 -27 97 -141 61 -142 -45 0 -45 -9 -55 -49 -55 -59 0 -137 -98
-111 -140 10 -16 12 -38 5 -49 -6 -12 8 -4 32 17 47 42 56 84 19 97 -43 14 5
55 65 55 52 0 59 -7 59 -60 0 -49 -8 -60 -45 -61 -43 0 -44 -1 -7 -29 21 -16
68 -27 106 -26 83 3 105 -19 85 -84 -8 -28 -16 -36 -17 -17 -2 33 -123 62
-177 42 -40 -15 -34 -283 7 -299 18 -6 39 0 48 14 9 15 37 21 67 16 45 -9 52
-2 59 52 5 41 9 28 11 -39 2 -56 -8 -112 -21 -125 -19 -19 -16 -24 10 -24 24
0 34 -17 34 -60 0 -63 -28 -81 -47 -30 -32 83 -115 17 -110 -87 2 -44 4 -42
15 17 17 99 82 110 82 13 0 -38 10 -73 23 -77 28 -10 42 -63 39 -149 -2 -67
30 -86 144 -87 36 0 51 -8 43 -22 -8 -12 -3 -29 11 -38 14 -9 19 -25 12 -37
-9 -14 -27 -8 -53 18 -46 46 -76 49 -130 11 -34 -24 -46 -24 -78 0 -56 41
-103 34 -146 -20 -23 -30 -65 -52 -107 -57 l-68 -9 73 -3 c89 -4 117 -71 65
-158 l-32 -55 48 55 c55 64 142 73 176 20 19 -30 21 -27 12 17 -15 72 3 82 59
34 38 -34 44 -50 27 -84 -20 -41 -20 -41 10 -2 80 105 118 131 153 99 58 -53
180 -26 178 40 0 12 -9 5 -21 -14 -32 -55 -134 -46 -162 15 -18 41 -16 57 15
91 46 51 113 43 139 -16 33 -75 110 -41 110 48 0 24 9 50 20 57 11 7 20 -10
20 -39 0 -28 9 -51 20 -51 11 0 20 -21 20 -48 0 -61 33 -87 120 -95 54 -6 76
-20 98 -66 28 -58 28 -59 45 -14 18 49 57 41 57 -10 0 -20 11 -27 32 -19 17 7
37 12 45 12 7 0 -9 12 -37 26 -45 22 -51 39 -56 160 -6 145 4 156 95 105 30
-16 77 -23 118 -16 100 16 188 -193 103 -245 -11 -7 -20 2 -20 19 0 17 -10 31
-21 31 -12 0 -16 -9 -9 -20 7 -11 -10 -20 -39 -20 -29 0 -51 -11 -51 -26 0
-36 138 -29 162 8 9 15 19 91 21 168 2 77 7 116 11 87 15 -100 65 -122 255
-114 169 7 188 3 153 -34 -10 -10 -23 -50 -29 -89 l-11 -70 24 73 c31 97 104
171 182 189 34 8 51 18 37 23 -14 5 -62 -10 -105 -33 l-80 -41 0 59 c0 59 1
60 109 60 62 0 115 10 123 24 10 16 20 11 30 -15 30 -77 21 -109 -33 -109 -94
0 -243 -113 -202 -153 5 -6 15 9 23 32 16 52 108 101 189 101 57 0 61 5 61 76
0 75 1 76 68 68 90 -10 138 -144 52 -144 -35 0 -40 -12 -36 -105 l3 -105 8 95
c6 76 15 95 44 95 25 0 39 18 45 59 5 32 1 54 -8 49 -9 -6 -16 0 -16 12 0 13
16 20 35 16 24 -5 35 -26 35 -70 0 -34 9 -61 20 -59 11 1 25 -42 32 -97 10
-83 12 -88 15 -29 2 39 14 82 28 96 13 13 34 58 45 99 28 100 156 123 178 33
9 -34 35 -61 73 -75 53 -20 59 -32 59 -107 0 -47 7 -89 15 -94 8 -5 12 35 8
89 -7 97 -6 98 53 98 76 0 101 -73 52 -155 l-32 -55 49 57 c63 72 155 69 179
-7 12 -39 14 -33 7 23 -10 94 1 104 60 53 38 -34 44 -50 27 -84 -20 -41 -20
-41 10 -2 80 105 118 131 153 99 58 -53 180 -26 178 40 0 12 -9 5 -21 -14 -32
-55 -134 -46 -162 15 -18 41 -16 57 15 91 46 51 113 43 139 -16 33 -75 110
-41 110 48 0 24 9 50 20 57 11 7 20 -10 20 -39 0 -28 9 -51 20 -51 11 0 20
-21 20 -46 0 -49 34 -94 69 -93 12 0 5 9 -14 21 -19 11 -35 43 -35 70 0 29 9
45 20 38 12 -7 15 -21 9 -31 -6 -11 -2 -19 8 -19 11 0 26 -18 33 -40 7 -22 29
-40 48 -40 33 0 119 -74 107 -92 -3 -4 -4 -15 -4 -23 1 -8 10 6 20 31 19 47
59 44 59 -5 0 -18 15 -23 41 -17 40 11 40 12 -5 34 -40 20 -47 40 -52 158 -6
145 4 156 95 106 28 -16 79 -23 122 -17 85 11 101 -6 121 -125 12 -73 13 -68
18 50 4 72 10 106 14 77 15 -100 65 -122 255 -114 169 7 188 3 153 -34 -10
-10 -23 -50 -29 -89 l-11 -70 24 73 c31 97 104 171 182 189 34 8 51 18 37 23
-14 5 -62 -10 -105 -33 l-80 -41 0 58 c0 61 226 105 265 51 33 -45 15 -90 -36
-90 -94 0 -243 -113 -202 -153 5 -6 15 9 23 32 16 52 108 101 189 101 56 0 61
6 61 68 0 58 93 117 133 85 34 -28 25 -153 -11 -153 -38 0 -42 -10 -38 -105
l3 -105 8 95 c6 76 15 95 44 95 25 0 39 18 45 59 5 32 1 54 -8 49 -9 -6 -16
-3 -16 6 0 23 81 71 95 57 7 -6 2 -11 -10 -11 -26 0 -9 -146 18 -157 9 -3 18
-48 20 -100 3 -81 5 -84 12 -23 4 38 17 75 28 82 11 7 27 43 35 80 9 37 22 88
30 113 14 42 9 45 -82 46 -89 0 -93 2 -57 30 24 18 85 29 165 29 l126 0 0 -76
c0 -92 47 -165 106 -162 29 1 34 5 14 12 -75 28 -100 72 -100 178 0 58 -8 110
-17 116 -25 15 -88 289 -75 323 16 43 52 35 52 -11 0 -29 13 -40 50 -40 64 0
73 89 10 106 -85 22 -56 190 35 199 l75 8 -85 4 c-92 3 -123 -42 -97 -145 7
-30 1 -57 -18 -72 -26 -22 -30 -9 -30 96 0 152 -12 184 -72 184 -35 0 -48 11
-48 40 0 37 13 40 170 40 100 0 170 8 170 20 0 11 -22 20 -50 20 -51 0 -67 27
-30 50 11 7 20 37 20 66 1 42 5 47 20 24 12 -18 20 -20 20 -6 0 37 -43 54 -61
25 -9 -15 -12 -34 -6 -43 5 -9 5 -16 0 -16 -54 0 -63 119 -11 141 67 27 69 35
28 93 -29 41 -27 44 25 52 51 7 51 8 -10 11 -79 4 -86 37 -10 49 30 5 8 7 -50
5 -125 -5 -143 24 -20 33 93 7 123 61 40 72 -33 5 -45 20 -45 57 0 32 -8 44
-23 35 -16 -10 -20 -3 -10 20 7 20 13 66 13 102 0 64 4 68 80 76 l80 8 -85 -2
-85 -2 -6 -85 c-5 -64 -15 -85 -40 -85 -29 -1 -30 -3 -4 -20 24 -16 21 -19
-15 -20 -35 0 -45 -12 -45 -50 0 -27 -9 -50 -20 -50 -11 0 -20 -15 -20 -34 0
-27 -5 -29 -25 -9 -20 20 -18 37 10 85 20 36 35 103 35 160 0 115 34 132 45
23 l8 -75 4 85 c3 83 -34 119 -67 65 -18 -29 -50 -24 -50 8 0 39 61 50 221 39
129 -9 185 11 109 40 -18 7 -30 37 -30 72 0 34 -10 61 -22 61 -13 0 -19 -20
-14 -46 9 -48 -24 -94 -68 -94 -20 1 -20 4 -2 16 13 8 22 40 18 70 -7 73 -27
89 -24 19 2 -53 -57 -123 -83 -97 -6 7 -1 12 12 12 13 0 23 27 23 60 0 33 -10
60 -22 60 -13 0 -19 -20 -14 -46 10 -49 -24 -94 -71 -94 -63 0 -54 126 14 184
l63 55 -105 0 -105 1 0 -966 c0 -725 -6 -972 -24 -990 -35 -35 -4997 -35
-5032 0 -18 18 -24 265 -24 990 l0 966 -102 0 c-84 0 -99 -5 -81 -27z m78
-373 c-5 -79 -21 -92 -83 -68 -46 18 -39 50 21 102 68 59 67 60 62 -34z m5565
-239 c0 -10 -34 -21 -75 -25 -96 -8 -107 -55 -21 -97 117 -58 120 -147 4 -169
-21 -4 -42 -8 -48 -10 -5 -1 10 -11 35 -21 29 -11 44 -34 43 -63 -2 -45 -2
-45 -18 4 -13 39 -16 28 -18 -55 -1 -75 -10 -105 -30 -105 -15 0 -26 15 -25
34 2 20 -14 38 -37 42 -47 10 -90 41 -90 67 0 9 17 7 38 -7 72 -44 145 99 75
147 -10 7 16 32 59 56 52 28 62 38 28 30 -27 -7 -68 -32 -91 -57 -48 -52 -109
-80 -109 -49 0 11 18 25 40 31 46 12 52 37 13 52 -30 12 -59 94 -33 94 9 0 25
27 37 60 21 60 223 97 223 41z m-5599 -281 c11 0 19 -27 19 -60 0 -40 -10 -60
-30 -60 -16 0 -30 14 -30 30 0 17 -18 30 -40 30 -31 0 -40 13 -40 59 0 66 36
100 62 59 13 -22 18 -19 21 12 2 26 6 20 11 -15 5 -30 17 -55 27 -55z m5419
-53 c0 -15 -11 -27 -25 -27 -17 -1 -15 -7 5 -20 19 -12 21 -20 6 -20 -26 0
-71 68 -55 84 20 20 69 8 69 -17z m-5480 -69 c0 -29 9 -39 30 -31 20 8 30 0
30 -23 0 -25 -20 -35 -74 -39 -59 -5 -69 0 -50 19 13 13 24 45 24 70 0 25 9
46 20 46 11 0 20 -19 20 -42z m5642 -56 c-15 -10 -22 -32 -16 -50 8 -20 2 -32
-17 -32 -18 0 -29 19 -29 50 0 39 10 50 45 50 34 -1 38 -5 17 -18z m-147 -47
c-13 -38 -95 -44 -95 -6 0 20 18 31 52 31 32 0 48 -9 43 -25z m-5601 -260 c-4
-36 -8 -11 -8 55 0 66 4 95 8 65 5 -30 5 -84 0 -120z m146 55 c0 -104 -3 -110
-50 -110 -47 0 -50 6 -50 110 0 104 3 110 50 110 47 0 50 -6 50 -110z m5454
-155 c3 -114 -4 -195 -15 -195 -10 0 -19 -36 -19 -80 0 -44 -9 -80 -20 -80
-11 0 -20 -13 -20 -30 0 -16 -10 -30 -22 -30 -14 0 -18 18 -11 45 7 25 13 134
13 243 0 197 0 198 40 162 22 -20 40 -27 40 -16 0 11 -18 36 -40 56 -57 52
-54 135 5 126 43 -6 45 -15 49 -201z m106 -455 c0 -11 -54 -20 -121 -20 -76 0
-117 8 -109 20 7 11 61 20 121 20 60 0 109 -9 109 -20z m-5040 -191 c0 -70
-37 -79 -84 -19 -33 43 -53 52 -99 42 -52 -10 -83 16 -37 31 77 26 220 -9 220
-54z m858 1 l12 60 150 0 150 0 0 -70 0 -70 -165 -6 c-178 -6 -238 34 -194
130 14 29 19 22 26 -34 l9 -70 12 60z m1322 -12 c0 -65 -29 -74 -83 -25 -60
54 -48 102 23 91 51 -7 60 -17 60 -66z m199 45 c-2 -38 -82 -103 -127 -103
-64 0 -79 112 -17 124 46 9 145 -5 144 -21z m446 23 c167 -10 175 -12 175 -57
0 -70 -36 -79 -82 -21 -49 62 -99 66 -147 14 -34 -38 -35 -38 -73 0 -45 45
-77 48 -129 10 -27 -20 -46 -23 -64 -8 -78 65 5 81 320 62z m555 -38 c0 -33
-3 -34 -69 -8 -70 26 -64 55 9 44 34 -5 60 -21 60 -36z m351 31 c7 -12 9 -25
5 -30 -14 -13 -96 15 -96 33 0 25 75 22 91 -3z m127 -49 l12 60 150 0 150 0 0
-70 0 -70 -129 -6 c-201 -9 -289 45 -228 140 12 18 20 3 25 -44 l8 -70 12 60z
m-3551 -9 c35 -13 51 -14 43 -1 -7 11 -25 20 -40 20 -15 0 -33 9 -40 20 -7 12
13 20 49 20 l61 0 0 -130 c0 -102 -6 -130 -30 -130 -16 0 -30 8 -30 18 0 10
-27 27 -60 39 -54 19 -85 63 -44 63 9 0 13 34 9 75 -5 44 -1 65 9 51 9 -13 42
-33 73 -45z m3004 -1 c77 -26 110 -200 39 -200 -16 0 -30 8 -30 18 0 10 -27
27 -60 39 -54 19 -85 63 -44 63 9 0 13 34 10 75 -3 41 -1 64 5 51 7 -13 43
-34 80 -46z m-1465 -27 c-16 -90 -42 -108 -57 -41 -7 32 -15 67 -18 78 -3 11
15 21 41 23 41 2 45 -4 34 -60z m3014 44 c0 -10 -8 -14 -18 -8 -10 6 -14 -7
-8 -29 16 -59 -10 -118 -35 -79 -10 16 -19 49 -19 72 0 24 -11 47 -25 52 -14
5 4 9 40 10 36 1 65 -7 65 -18z m-5371 -36 c19 -21 30 -50 25 -65 -7 -17 -11
-15 -12 8 -1 18 -9 38 -18 43 -9 6 -12 -21 -8 -58 8 -63 4 -69 -44 -69 -64 0
-77 104 -17 138 19 12 25 21 12 21 -28 1 -60 -38 -73 -89 -8 -33 -10 -31 -12
11 -4 96 82 131 147 60z m200 8 c60 -61 25 -149 -59 -149 -121 0 -117 176 4
179 13 1 37 -13 55 -30z m2800 -8 c19 -21 30 -50 25 -65 -7 -17 -11 -15 -12 8
-1 18 -9 38 -18 43 -9 6 -12 -21 -8 -58 8 -64 4 -69 -46 -69 -50 0 -54 5 -46
70 8 72 -12 72 -30 0 -8 -32 -10 -30 -12 11 -4 96 82 131 147 60z m200 8 c60
-61 25 -149 -59 -149 -121 0 -117 176 4 179 13 1 37 -13 55 -30z m-2514 -45
c-32 -6 -32 -10 -4 -38 36 -35 25 -56 -20 -39 -53 20 -40 112 14 97 37 -10 38
-14 10 -20z"/>
<path d="M1727 310 c-7 -18 -3 -42 9 -54 30 -30 88 -3 80 39 -9 46 -73 57 -89
15z"/>
<path d="M4732 308 c-7 -19 -5 -43 6 -54 29 -29 86 1 78 41 -9 47 -68 56 -84
13z"/>
<path d="M412 243 c-7 -11 6 -15 30 -8 33 8 40 3 34 -27 -4 -22 -23 -37 -44
-35 -23 2 -29 -4 -17 -16 31 -31 88 4 81 50 -6 45 -64 69 -84 36z"/>
<path d="M3412 243 c-7 -11 5 -15 28 -9 27 7 40 1 40 -20 0 -44 -41 -65 -62
-32 -11 19 -17 20 -18 4 0 -33 31 -48 69 -34 42 17 33 95 -12 104 -18 3 -39
-2 -45 -13z"/>
<path d="M40 2039 c0 -23 9 -36 20 -29 12 7 15 21 9 31 -6 11 -2 19 10 19 13
0 21 -52 21 -130 0 -82 -8 -130 -22 -130 -12 0 -17 14 -11 30 7 17 3 30 -8 30
-10 0 -19 -18 -19 -41 0 -37 10 -40 115 -35 116 6 175 74 80 92 -19 4 -35 -2
-35 -14 0 -11 15 -15 33 -8 22 8 30 4 23 -16 -5 -15 -36 -31 -69 -34 l-60 -6
8 141 c8 140 8 141 -44 141 -38 0 -51 -10 -51 -41z"/>
<path d="M1633 1686 c-21 -21 -15 -146 7 -146 11 0 20 16 20 35 1 29 4 30 19
6 16 -25 21 -24 34 10 14 36 16 35 29 -11 11 -39 14 -30 16 40 l1 90 -39 -50
c-31 -39 -39 -43 -40 -16 0 37 -27 62 -47 42z"/>
<path d="M2380 1624 c0 -79 4 -86 45 -80 58 8 74 90 21 110 -20 7 -43 23 -51
35 -8 11 -15 -18 -15 -65z"/>
<path d="M2640 1623 c0 -70 5 -78 50 -78 43 0 47 5 25 31 -20 24 -20 32 0 39
14 5 25 16 25 26 0 10 -13 13 -30 6 -19 -7 -30 1 -30 21 0 18 -9 32 -20 32
-11 0 -20 -35 -20 -77z"/>
<path d="M2830 1680 c-7 -11 7 -20 32 -20 40 0 41 -3 14 -35 -62 -73 -61 -85
8 -83 36 2 50 7 31 12 -43 11 -45 33 -5 66 46 38 36 80 -19 80 -27 0 -54 -9
-61 -20z"/>
<path d="M3500 1624 c0 -79 4 -86 45 -80 58 8 74 90 21 110 -20 7 -43 23 -51
35 -8 11 -15 -18 -15 -65z"/>
<path d="M3623 1620 c-1 -44 6 -80 17 -80 11 0 20 36 20 80 0 44 -8 80 -17 80
-9 0 -18 -36 -20 -80z"/>
<path d="M3760 1681 c0 -11 -13 -21 -29 -21 -32 0 -60 -69 -41 -100 7 -11 29
-20 49 -20 38 0 71 132 37 152 -9 6 -16 1 -16 -11z"/>
<path d="M3900 1682 c0 -9 -19 -22 -42 -28 -58 -15 -45 -102 17 -110 40 -6 45
2 45 75 0 44 -4 81 -10 81 -5 0 -10 -8 -10 -18z"/>
<path d="M1804 1600 c-1 -51 6 -60 47 -60 29 0 49 12 49 28 0 102 -93 133 -96
32z"/>
<path d="M1920 1635 c0 -34 53 -109 67 -95 5 6 15 37 23 70 l12 60 -30 -50
c-23 -37 -31 -41 -31 -16 -1 40 -41 71 -41 31z"/>
<path d="M2123 1633 c-34 -41 -6 -96 45 -89 30 4 42 20 42 56 0 57 -51 77 -87
33z"/>
<path d="M2254 1647 c-21 -21 -17 -107 6 -107 11 0 20 24 20 54 0 59 29 44 47
-24 6 -24 9 -16 7 20 -4 57 -48 89 -80 57z"/>
<path d="M2523 1633 c-36 -43 -6 -93 54 -91 l53 2 -50 16 c-50 16 -50 16 -4
18 33 1 45 12 40 37 -8 44 -63 55 -93 18z"/>
<path d="M2980 1640 c0 -12 11 -16 25 -8 14 8 9 -3 -10 -25 -40 -46 -28 -67
37 -67 39 0 43 7 30 55 -14 53 -82 91 -82 45z"/>
<path d="M3100 1636 c0 -14 9 -39 19 -55 12 -19 11 -39 -3 -55 -15 -19 -13
-26 8 -26 15 0 40 32 54 71 29 80 14 122 -16 47 -13 -33 -20 -37 -21 -14 -1
39 -41 71 -41 32z"/>
<path d="M3233 1647 c-21 -21 -15 -107 7 -107 11 0 20 17 20 39 0 62 36 67 46
6 7 -52 8 -51 11 10 3 63 -44 92 -84 52z"/>
<path d="M3368 1631 c-18 -47 7 -95 47 -87 22 4 35 25 35 56 0 57 -63 81 -82
31z"/>
<path d="M4020 1601 c0 -33 9 -61 20 -61 11 0 20 24 20 54 0 59 29 44 47 -24
6 -24 9 -16 7 20 -6 90 -94 100 -94 11z"/>
<path d="M4163 1633 c-34 -41 -6 -96 45 -89 30 4 42 20 42 56 0 57 -51 77 -87
33z"/>
<path d="M4287 1618 c7 -26 13 -55 13 -63 0 -36 56 -11 67 30 20 74 13 88 -17
35 -21 -36 -29 -41 -29 -16 -1 18 -11 40 -24 48 -16 10 -19 0 -10 -34z"/>
<path d="M10 1182 c0 -43 7 -74 15 -69 8 5 15 38 15 72 0 40 7 56 19 44 43
-43 30 -427 -16 -476 -59 -63 -58 -133 2 -119 36 8 39 5 15 -12 -20 -15 -22
-21 -5 -22 14 0 25 -9 25 -19 0 -11 -13 -15 -30 -8 -16 6 -31 1 -32 -11 -2
-12 -5 -33 -7 -47 -2 -14 10 -41 26 -60 26 -31 25 -35 -9 -36 -30 -1 -28 -6
12 -21 61 -25 121 36 118 119 -3 52 -3 52 -18 -7 -12 -46 -16 -50 -18 -17 -1
24 -8 59 -15 79 -11 26 -7 30 15 18 15 -9 11 3 -10 27 -21 23 -50 43 -65 43
-42 0 -32 37 24 92 39 40 63 48 108 38 63 -14 100 19 63 56 -17 17 -33 17 -63
-2 -66 -41 -79 -11 -79 176 0 199 -10 240 -57 240 -25 0 -33 -19 -33 -78z m95
-686 c5 -33 -3 -66 -20 -80 -15 -12 -26 -14 -24 -4 2 10 2 23 -1 28 -2 6 -6
33 -9 62 -6 71 43 66 54 -6z"/>
<path d="M2880 1030 c0 -16 -13 -30 -30 -30 -19 0 -30 -19 -30 -50 0 -40 10
-50 50 -50 45 0 50 8 50 80 0 44 -9 80 -20 80 -11 0 -20 -13 -20 -30z"/>
<path d="M3001 1021 c-26 -49 -10 -90 50 -130 58 -38 72 -39 66 -6 -3 14 2 46
11 71 30 88 -84 147 -127 65z m90 -23 c21 -33 -26 -71 -53 -44 -23 23 -9 66
22 66 10 0 24 -10 31 -22z"/>
<path d="M3231 1001 c-7 -11 -25 -14 -42 -8 -18 7 -29 -1 -29 -21 0 -18 16
-32 37 -32 20 0 43 -6 50 -14 52 -51 141 12 103 74 -16 25 -104 26 -119 1z"/>
<path d="M2664 950 c28 -62 44 -63 72 -5 l21 45 2 -45 c2 -62 41 -57 41 5 0
45 -8 50 -80 50 -77 0 -79 -1 -56 -50z"/>
<path d="M5944 609 c-24 -17 -44 -42 -44 -55 1 -18 4 -18 16 0 11 18 21 15 37
-10 16 -26 15 -41 -6 -60 -20 -19 -27 -20 -27 -1 0 13 -6 18 -13 10 -17 -16
51 -93 81 -93 12 0 10 8 -5 18 -19 12 -21 21 -5 31 37 23 27 131 -12 131 -29
0 -29 4 5 29 52 40 30 39 -27 0z"/>
<path d="M240 500 c0 -47 9 -60 40 -60 31 0 40 13 40 60 0 47 -9 60 -40 60
-31 0 -40 -13 -40 -60z"/>
<path d="M607 228 c-19 -49 43 -101 82 -69 17 14 31 36 31 47 0 12 -12 5 -27
-15 -15 -21 -37 -31 -50 -23 -38 24 -26 69 22 78 l45 9 -46 2 c-25 2 -51 -11
-57 -29z"/>
<path d="M3607 228 c-19 -49 43 -101 82 -69 17 14 31 36 31 47 0 12 -12 5 -27
-15 -15 -21 -37 -31 -50 -23 -38 24 -26 69 22 78 l45 9 -46 2 c-25 2 -51 -11
-57 -29z"/>
<path d="M1369 146 c-17 -41 -27 -93 -23 -115 7 -32 9 -29 11 12 4 63 49 105
100 92 32 -8 34 -4 15 38 -32 67 -67 58 -103 -27z"/>
<path d="M4370 148 c-16 -40 -29 -92 -28 -115 2 -32 6 -28 15 15 15 66 63 104
110 86 53 -20 40 -74 -17 -74 -27 0 -50 -12 -50 -26 0 -16 23 -24 65 -22 91 5
89 4 103 41 11 27 8 29 -18 7 -25 -21 -30 -18 -30 15 0 22 -13 51 -30 65 -16
14 -30 37 -30 52 0 56 -60 26 -90 -44z"/>
<path d="M2440 101 c0 -42 10 -61 31 -61 17 0 27 -7 22 -16 -6 -8 10 -17 35
-19 38 -3 45 7 49 71 3 63 -3 76 -36 78 -31 3 -41 -9 -41 -45 0 -27 -10 -49
-22 -49 -13 0 -18 18 -12 40 6 22 2 45 -8 51 -10 6 -18 -16 -18 -50z"/>
<path d="M5440 101 c0 -42 10 -61 31 -61 17 0 27 -7 22 -15 -5 -8 11 -16 35
-18 38 -2 45 9 49 71 3 61 -3 74 -36 76 -31 3 -41 -9 -41 -45 0 -27 -10 -49
-22 -49 -13 0 -18 18 -12 40 6 22 2 45 -8 51 -10 6 -18 -16 -18 -50z"/>
<path d="M1763 103 c-20 -20 -51 -42 -70 -49 -18 -7 -33 -23 -33 -35 0 -12 26
-6 61 15 60 35 63 35 90 -3 16 -21 34 -33 40 -27 6 6 -12 29 -40 52 l-51 40
54 13 c38 10 61 5 77 -18 33 -45 54 -38 29 9 -27 50 -108 52 -157 3z"/>
<path d="M2132 122 c-7 -10 -2 -26 11 -34 14 -9 18 -6 9 9 -10 16 11 23 68 23
70 0 81 -6 72 -35 -6 -19 -2 -48 9 -65 15 -22 19 -12 15 40 -6 71 -149 120
-184 62z"/>
<path d="M4755 95 c-25 -25 -53 -45 -63 -45 -10 0 -23 -12 -28 -28 -7 -20 8
-17 55 10 63 37 64 37 92 -1 16 -21 34 -33 40 -27 6 6 -12 29 -40 52 l-51 40
54 13 c38 10 61 5 77 -18 33 -45 54 -38 29 9 -29 54 -109 51 -165 -5z"/>
<path d="M5132 122 c-7 -10 -2 -26 11 -34 14 -9 18 -6 9 9 -10 16 11 23 68 23
70 0 81 -6 72 -35 -6 -19 -2 -48 9 -65 15 -22 19 -12 15 40 -6 71 -149 120
-184 62z"/>
<path d="M992 42 c-21 -8 -99 -12 -175 -10 -75 3 -140 -1 -145 -9 -4 -7 81
-14 190 -14 151 -1 198 5 198 25 0 29 -12 30 -68 8z"/>
<path d="M3992 42 c-21 -8 -99 -12 -175 -10 -75 3 -140 -1 -145 -9 -4 -7 81
-14 190 -14 151 -1 198 5 198 25 0 29 -12 30 -68 8z"/>
</g>
</svg>
